<?xml version="1.0" standalone="no"?>
<!DOCTYPE svg PUBLIC "-//W3C//DTD SVG 20010904//EN"
 "http://www.w3.org/TR/2001/REC-SVG-20010904/DTD/svg10.dtd">
<svg version="1.0" xmlns="http://www.w3.org/2000/svg"
 width="914.000000pt" height="686.000000pt" viewBox="0 0 914.000000 686.000000"
 preserveAspectRatio="xMidYMid meet">

<g transform="translate(0.000000,686.000000) scale(0.100000,-0.100000)"
fill="#000000" stroke="none">
<path d="M885 6826 c-36 -36 -41 -70 -17 -110 l21 -35 -34 -20 c-45 -26 -75
-87 -75 -151 l0 -50 85 0 c75 0 85 -2 85 -18 0 -30 22 -42 77 -42 29 0 53 -4
53 -10 0 -5 -11 -10 -24 -10 -14 0 -27 -4 -30 -9 -6 -10 97 -18 147 -13 37 4
35 22 -3 22 -16 0 -30 5 -30 10 0 6 22 10 49 10 81 0 81 0 81 105 0 108 2 105
-99 105 -56 0 -71 4 -87 21 -10 12 -32 28 -47 36 -28 14 -28 15 -11 35 30 32
25 95 -9 124 -39 33 -99 33 -132 0z m119 -7 c20 -16 26 -29 26 -59 0 -72 -84
-106 -135 -55 -73 72 28 178 109 114z m48 -179 l33 -29 -55 -1 c-31 0 -61 -5
-68 -12 -7 -7 -12 -38 -12 -70 l0 -58 -80 0 -80 0 0 45 c0 55 18 93 60 129 27
23 41 26 101 26 62 0 72 -3 101 -30z m208 -135 l0 -86 -147 3 -148 3 -3 69
c-2 38 -1 75 2 83 4 10 38 13 151 13 l145 0 0 -85z"/>
<path d="M990 6506 l0 -63 38 -7 c61 -10 200 -7 207 5 4 5 4 37 0 70 l-7 59
-119 0 -119 0 0 -64z"/>
<path d="M1920 6736 c0 -8 -8 -13 -17 -12 -14 1 -18 -7 -18 -29 0 -25 4 -30
28 -33 26 -3 27 -2 27 42 0 25 -4 46 -10 46 -5 0 -10 -6 -10 -14z m0 -40 c0
-8 -4 -17 -9 -21 -12 -7 -24 12 -16 25 9 15 25 12 25 -4z"/>
<path d="M2341 6736 c-7 -8 -11 -27 -9 -43 2 -22 8 -28 28 -28 21 0 26 5 28
34 5 45 -23 66 -47 37z m29 -37 c0 -17 -4 -28 -10 -24 -5 3 -10 17 -10 31 0
13 5 24 10 24 6 0 10 -14 10 -31z"/>
<path d="M2420 6735 c-9 -10 -9 -15 -1 -15 6 0 11 -13 11 -30 0 -16 5 -30 10
-30 12 0 13 77 1 84 -5 3 -14 -1 -21 -9z"/>
<path d="M3160 6736 c0 -8 -7 -13 -16 -12 -21 1 -39 -27 -31 -48 4 -10 18 -16
37 -16 29 0 30 2 30 45 0 25 -4 45 -10 45 -5 0 -10 -6 -10 -14z m-5 -44 c0
-18 -20 -15 -23 4 -3 10 1 15 10 12 7 -3 13 -10 13 -16z"/>
<path d="M2842 6704 c4 -49 23 -55 22 -7 -1 20 -7 39 -13 41 -9 3 -11 -7 -9
-34z"/>
<path d="M3027 6733 c-9 -15 5 -73 17 -73 7 0 10 14 8 40 -4 37 -14 51 -25 33z"/>
<path d="M1960 6709 c-9 -15 -8 -24 1 -35 14 -17 49 -19 49 -3 0 6 -7 9 -15 6
-8 -4 -17 -2 -20 3 -4 6 5 10 19 10 28 0 33 9 14 28 -18 18 -36 15 -48 -9z
m37 -5 c-3 -3 -12 -4 -19 -1 -8 3 -5 6 6 6 11 1 17 -2 13 -5z"/>
<path d="M2030 6717 c0 -22 17 -57 29 -57 4 0 12 16 18 35 6 19 8 35 3 35 -4
0 -11 -10 -14 -22 l-6 -23 -15 25 c-11 20 -14 21 -15 7z"/>
<path d="M2112 6721 c-21 -13 -11 -55 14 -59 30 -4 48 21 34 47 -11 22 -27 26
-48 12z m36 -28 c-4 -22 -22 -20 -26 1 -2 10 3 16 13 16 10 0 15 -7 13 -17z"/>
<path d="M2180 6678 c0 -26 5 -48 10 -48 6 0 10 7 10 15 0 8 6 15 14 15 7 0
19 7 26 14 17 21 -3 51 -34 51 -24 1 -26 -2 -26 -47z m48 15 c-4 -22 -22 -20
-26 1 -2 10 3 16 13 16 10 0 15 -7 13 -17z"/>
<path d="M2270 6720 c-13 -9 -11 -13 10 -31 l25 -20 -25 6 c-19 6 -22 5 -14
-5 14 -15 46 -10 52 8 2 7 -5 16 -17 19 -12 3 -21 9 -21 14 0 5 7 5 17 2 11
-4 14 -3 9 5 -9 14 -16 15 -36 2z"/>
<path d="M2517 6710 c4 -14 7 -37 7 -53 -1 -21 2 -25 12 -16 16 13 38 78 30
87 -4 3 -10 -4 -13 -17 l-6 -24 -19 24 -19 24 8 -25z"/>
<path d="M2589 6714 c-17 -21 0 -49 32 -49 18 0 25 6 27 24 6 38 -34 55 -59
25z m39 -21 c-4 -22 -22 -20 -26 1 -2 10 3 16 13 16 10 0 15 -7 13 -17z"/>
<path d="M2671 6698 c-1 -36 1 -38 29 -38 27 0 30 3 30 29 0 17 -4 33 -10 36
-6 4 -10 -5 -10 -19 0 -35 -27 -34 -33 2 -3 22 -4 20 -6 -10z"/>
<path d="M2751 6692 c1 -21 3 -29 6 -17 3 11 9 25 14 31 6 8 4 14 -6 18 -12 4
-15 -2 -14 -32z"/>
<path d="M2884 6716 c-15 -39 23 -74 50 -46 8 9 6 11 -11 5 -14 -4 -23 -2 -23
4 0 6 9 11 20 11 23 0 26 10 8 28 -16 16 -37 15 -44 -2z"/>
<path d="M2960 6714 c-11 -13 -10 -16 8 -21 12 -3 22 -10 22 -15 0 -5 -10 -6
-22 -3 -18 6 -20 4 -12 -5 14 -15 46 -10 52 8 2 7 -5 16 -17 19 -28 7 -27 22
2 16 18 -4 19 -3 7 6 -20 14 -25 14 -40 -5z"/>
<path d="M3200 6715 c-19 -23 -8 -50 22 -53 19 -2 28 2 33 18 12 39 -29 66
-55 35z m38 -22 c-4 -22 -22 -20 -26 1 -2 10 3 16 13 16 10 0 15 -7 13 -17z"/>
<path d="M3270 6693 c0 -18 5 -33 10 -33 6 0 10 11 10 25 0 14 5 25 10 25 6 0
10 -11 10 -25 0 -14 5 -25 10 -25 6 0 10 11 10 25 0 14 5 25 10 25 6 0 10 -11
10 -25 0 -14 5 -25 11 -25 6 0 9 14 7 33 -3 31 -4 32 -50 32 -48 0 -48 0 -48
-32z"/>
<path d="M3394 6719 c-5 -9 -2 -10 9 -6 10 3 17 2 17 -3 0 -6 -7 -10 -15 -10
-8 0 -15 -9 -15 -20 0 -15 7 -20 29 -20 27 0 28 2 22 32 -7 34 -33 49 -47 27z
m31 -39 c-3 -5 -11 -10 -16 -10 -6 0 -7 5 -4 10 3 6 11 10 16 10 6 0 7 -4 4
-10z"/>
<path d="M3460 6695 c0 -19 5 -35 10 -35 6 0 10 16 10 35 0 19 -4 35 -10 35
-5 0 -10 -16 -10 -35z"/>
<path d="M3501 6691 c1 -31 2 -32 8 -12 9 34 31 39 31 7 0 -14 5 -26 10 -26
14 0 12 46 -2 57 -7 6 -21 10 -30 10 -14 0 -18 -8 -17 -36z"/>
<path d="M3622 6721 c-19 -12 -11 -55 12 -59 10 -2 23 2 30 8 8 10 6 12 -11 7
-18 -4 -23 -1 -23 15 0 15 5 18 20 13 24 -7 27 10 4 19 -19 7 -16 8 -32 -3z"/>
<path d="M3690 6715 c-19 -23 -8 -50 22 -53 19 -2 28 2 33 18 12 39 -29 66
-55 35z m38 -22 c-4 -22 -22 -20 -26 1 -2 10 3 16 13 16 10 0 15 -7 13 -17z"/>
<path d="M3765 6722 c-9 -10 -5 -62 5 -62 6 0 10 11 10 25 0 14 5 25 10 25 6
0 10 -11 10 -25 0 -14 5 -25 10 -25 6 0 10 11 10 25 0 14 5 25 10 25 6 0 10
-11 10 -25 0 -14 5 -25 11 -25 6 0 9 14 7 33 -3 30 -5 32 -46 33 -23 0 -44 -2
-47 -4z"/>
<path d="M2798 6693 c6 -2 18 -2 25 0 6 3 1 5 -13 5 -14 0 -19 -2 -12 -5z"/>
<path d="M3078 6693 c7 -3 16 -2 19 1 4 3 -2 6 -13 5 -11 0 -14 -3 -6 -6z"/>
<path d="M2480 6670 c0 -5 5 -10 10 -10 6 0 10 5 10 10 0 6 -4 10 -10 10 -5 0
-10 -4 -10 -10z"/>
<path d="M1605 6610 c-181 -3 -319 -8 -305 -12 14 -4 529 -5 1145 -2 616 2
1375 1 1686 -3 l566 -6 2 -145 2 -144 -25 6 -25 6 24 -55 25 -55 -2345 0
-2345 0 0 -3040 0 -3040 4510 0 4510 0 0 3040 0 3040 -2132 0 c-1173 0 -2143
3 -2156 6 -13 4 -21 12 -18 18 2 6 11 28 20 49 16 37 16 37 -6 32 l-23 -6 2
151 c1 108 -2 152 -10 156 -18 6 -2720 10 -3102 4z m3010 -433 c-11 -7 -38
-30 -60 -52 -80 -80 -85 -198 -13 -281 33 -38 95 -74 126 -74 24 0 28 -15 31
-102 3 -72 1 -74 -30 -58 -10 6 -19 8 -19 5 0 -10 50 -105 55 -105 5 0 55 95
55 105 0 3 -9 1 -19 -5 -11 -5 -21 -10 -23 -10 -3 0 -2 83 1 148 1 15 7 22 21
22 33 0 94 36 128 74 73 83 68 204 -12 281 -22 22 -50 45 -61 52 -16 9 456 12
2103 12 l2122 1 0 -3030 0 -3030 -4500 0 -4500 0 2 2906 3 2906 120 1 120 2 2
115 c1 63 2 118 3 123 0 4 982 7 2183 6 1693 0 2178 -3 2162 -12z m194 -35
c122 -75 121 -250 -3 -327 -165 -102 -360 76 -275 252 34 70 119 118 194 108
22 -3 60 -18 84 -33z m-4726 -29 c-7 -2 -19 -2 -25 0 -7 3 -2 5 12 5 14 0 19
-2 13 -5z m38 -21 c0 -12 3 -9 10 7 5 13 12 22 14 19 6 -6 -12 -58 -19 -58 -2
0 -9 14 -15 30 -6 18 -6 28 -1 25 6 -4 10 -14 11 -23z m53 -6 c-7 -28 -24 -36
-24 -11 0 8 5 15 10 15 6 0 10 8 10 17 0 9 2 14 5 11 4 -3 3 -17 -1 -32z m33
27 c-4 -3 1 -11 10 -18 19 -14 9 -36 -15 -34 -15 1 -15 2 1 6 21 5 23 23 2 23
-8 0 -15 7 -15 15 0 8 5 15 12 15 6 0 8 -3 5 -7z m-107 -31 c0 -12 -8 -18 -25
-20 -24 -2 -34 16 -18 31 14 14 43 7 43 -11z m140 -49 c0 -10 -4 -14 -8 -8 -4
6 -11 13 -16 18 -5 4 -2 7 7 7 10 0 17 -8 17 -17z m-74 -11 c31 3 50 1 42 -3
-32 -18 -117 -14 -144 6 -17 13 -16 14 14 4 18 -6 58 -9 88 -7z"/>
<path d="M1100 5890 l0 -240 240 0 240 0 0 240 0 240 -240 0 -240 0 0 -240z
m248 150 c17 -11 32 -24 32 -30 0 -5 12 -10 27 -10 18 0 40 -15 75 -50 51 -52
57 -74 33 -106 -14 -18 -14 -17 -9 12 7 36 -10 74 -32 74 -8 0 -20 12 -26 26
-9 20 -17 25 -37 21 -18 -4 -32 3 -56 29 -34 36 -58 41 -98 23 -24 -11 -47
-47 -47 -73 0 -8 -11 -21 -25 -30 -29 -19 -34 -66 -9 -87 9 -8 40 -17 68 -20
l51 -6 -55 -1 c-61 -2 -72 3 -89 35 -17 34 -13 62 13 86 13 12 27 33 31 47 21
71 90 98 153 60z m110 -146 c14 -16 22 -38 22 -63 0 -27 7 -44 25 -61 14 -13
25 -30 25 -37 0 -25 -30 -26 -56 -2 -19 18 -34 22 -72 21 -49 -2 -71 9 -90 45
-50 93 75 177 146 97z"/>
<path d="M1378 5903 c6 -2 18 -2 25 0 6 3 1 5 -13 5 -14 0 -19 -2 -12 -5z"/>
<path d="M1337 5882 c-22 -25 -21 -75 1 -95 10 -10 23 -17 28 -17 4 0 -2 7
-14 16 -27 18 -30 69 -5 96 9 10 14 18 11 18 -3 0 -12 -8 -21 -18z"/>
<path d="M1433 5882 c25 -27 22 -78 -5 -96 -12 -9 -18 -16 -12 -16 38 0 59 84
28 114 -22 22 -31 20 -11 -2z"/>
<path d="M1350 5859 c-14 -26 11 -69 40 -69 20 0 50 25 50 41 0 47 -69 69 -90
28z"/>
<path d="M1460 5772 c0 -10 33 -42 43 -42 15 0 5 19 -18 34 -14 9 -25 13 -25
8z"/>
<path d="M2410 5890 l0 -240 235 0 235 0 0 240 0 240 -235 0 -235 0 0 -240z
m430 0 l0 -180 -25 0 c-14 0 -25 5 -25 10 0 6 7 10 15 10 13 0 15 22 15 135
l0 135 -175 0 -175 0 0 -135 0 -135 130 0 c80 0 130 -4 130 -10 0 -6 -53 -10
-140 -10 l-140 0 0 180 0 180 195 0 195 0 0 -180z m-170 58 c0 -4 11 -8 25 -8
28 0 33 -21 9 -41 -9 -7 -13 -21 -10 -34 8 -30 -2 -37 -28 -20 -19 13 -25 13
-43 0 -24 -17 -35 -10 -27 19 3 14 -2 28 -15 40 -24 22 -19 36 13 36 15 0 27
9 35 27 12 27 13 27 27 8 8 -10 14 -22 14 -27z m-90 -148 c0 -5 -9 -10 -19
-10 -11 0 -23 5 -26 10 -4 6 5 10 19 10 14 0 26 -4 26 -10z m175 0 c-3 -5 -37
-10 -75 -10 -38 0 -72 5 -75 10 -4 6 23 10 75 10 52 0 79 -4 75 -10z m-182
-37 c-7 -2 -21 -2 -30 0 -10 3 -4 5 12 5 17 0 24 -2 18 -5z m105 0 c-16 -2
-40 -2 -55 0 -16 2 -3 4 27 4 30 0 43 -2 28 -4z"/>
<path d="M2470 6035 c0 -13 26 -15 175 -15 149 0 175 2 175 15 0 13 -26 15
-175 15 -149 0 -175 -2 -175 -15z"/>
<path d="M2625 5935 c-25 -25 -13 -62 20 -62 32 0 45 37 20 62 l-20 20 -20
-20z"/>
<path d="M7890 5890 l0 -240 235 0 235 0 0 240 0 240 -235 0 -235 0 0 -240z
m329 155 c22 -22 8 -27 -25 -10 -66 34 -164 5 -205 -61 -25 -41 -18 -67 20
-72 26 -4 28 -22 2 -22 -65 0 -36 -96 42 -136 40 -21 120 -21 151 0 14 9 27
12 30 7 9 -14 -59 -41 -103 -41 -81 0 -140 43 -181 133 -18 38 -21 53 -12 70
6 12 18 39 28 60 19 43 75 86 126 96 40 9 107 -5 127 -24z m85 -40 c8 -23 -22
-47 -44 -35 -32 17 -40 11 -40 -30 0 -33 3 -40 19 -40 11 0 23 5 26 10 9 15
42 12 49 -5 12 -34 -31 -65 -49 -35 -3 6 -15 10 -26 10 -16 0 -19 -7 -19 -45
0 -33 4 -45 15 -45 8 0 15 5 15 10 0 6 11 10 25 10 20 0 25 -5 25 -25 0 -20
-5 -25 -25 -25 -14 0 -25 5 -25 10 0 6 -11 10 -25 10 -23 0 -25 3 -25 50 0 43
-3 50 -20 50 -11 0 -20 5 -20 10 0 6 9 10 19 10 17 0 20 8 23 51 3 49 5 52 38
63 39 14 56 11 64 -9z m-152 -63 c6 -6 1 -26 -11 -50 -12 -23 -21 -50 -21 -61
0 -22 -34 -46 -50 -36 -6 3 -10 21 -10 38 -1 18 -7 43 -15 57 -20 35 -18 49 8
60 25 11 85 6 99 -8z"/>
<path d="M7950 5890 c0 -5 5 -10 10 -10 6 0 10 5 10 10 0 6 -4 10 -10 10 -5 0
-10 -4 -10 -10z"/>
<path d="M8280 5890 c0 -5 5 -10 10 -10 6 0 10 5 10 10 0 6 -4 10 -10 10 -5 0
-10 -4 -10 -10z"/>
<path d="M8266 5791 c-4 -5 -2 -12 3 -15 5 -4 12 -2 15 3 4 5 2 12 -3 15 -5 4
-12 2 -15 -3z"/>
<path d="M8065 5893 c4 -10 11 -34 15 -53 6 -29 8 -32 14 -15 4 11 14 35 22
53 l14 32 -36 0 c-31 0 -35 -3 -29 -17z"/>
<path d="M7093 6097 c-26 -12 -43 -28 -43 -38 0 -10 -4 -21 -10 -24 -5 -3 -10
-22 -10 -41 0 -19 5 -34 10 -34 6 0 10 -6 10 -14 0 -8 11 -17 25 -20 25 -6 25
-8 25 -105 0 -79 3 -100 15 -105 8 -3 15 -16 15 -30 0 -13 7 -26 15 -30 13 -5
15 17 15 159 l0 165 -30 0 c-27 0 -30 3 -30 34 0 30 3 34 33 39 46 6 57 -1 57
-38 0 -20 6 -35 15 -39 12 -4 15 4 15 40 0 42 -3 47 -30 57 -18 7 -30 19 -30
29 0 23 -15 22 -67 -5z"/>
<path d="M347 6063 c-11 -33 -13 -42 -3 -30 16 21 46 23 46 2 0 -8 4 -15 9
-15 6 0 3 20 -6 45 -8 25 -18 45 -22 45 -4 0 -14 -21 -24 -47z m33 7 c0 -5 -4
-10 -10 -10 -5 0 -10 5 -10 10 0 6 5 10 10 10 6 0 10 -4 10 -10z"/>
<path d="M416 6080 c4 -19 10 -42 14 -50 7 -13 9 -12 14 3 18 53 18 53 30 18
14 -40 22 -33 30 24 l6 40 -12 -35 -11 -35 -10 33 c-5 17 -13 32 -17 32 -4 0
-11 -15 -15 -32 l-7 -33 -14 35 -14 35 6 -35z"/>
<path d="M537 6103 c-15 -14 -6 -33 18 -39 14 -3 25 -12 25 -20 0 -16 -36 -19
-43 -4 -3 6 -4 5 -3 -2 2 -7 13 -13 27 -13 34 0 38 32 5 45 -33 12 -34 34 -1
28 13 -3 22 -1 19 3 -6 11 -38 12 -47 2z"/>
<path d="M652 6098 c-16 -16 -15 -53 3 -68 18 -15 47 -10 53 10 5 13 3 13 -11
1 -25 -20 -49 -6 -45 26 2 23 8 28 30 28 14 -1 24 3 22 7 -8 12 -38 10 -52 -4z"/>
<path d="M733 6065 c0 -27 2 -38 4 -22 2 15 2 37 0 50 -2 12 -4 0 -4 -28z"/>
<path d="M930 6094 c0 -9 -5 -12 -12 -8 -15 10 -37 -23 -31 -46 3 -13 14 -20
29 -20 22 0 24 4 24 45 0 25 -2 45 -5 45 -3 0 -5 -7 -5 -16z m-3 -30 c8 -22
-15 -44 -26 -25 -10 16 -4 41 10 41 5 0 12 -7 16 -16z"/>
<path d="M754 6076 c-10 -26 1 -51 22 -54 25 -4 37 25 22 52 -11 20 -37 21
-44 2z m39 -9 c3 -8 1 -20 -4 -28 -11 -19 -34 3 -26 25 8 20 23 21 30 3z"/>
<path d="M823 6058 c1 -26 7 -34 25 -36 20 -3 22 1 21 35 -1 35 -2 36 -8 9 -8
-40 -28 -44 -35 -7 l-6 31 3 -32z"/>
<path d="M5510 6010 c-23 -23 -24 -33 -9 -61 7 -14 19 -19 45 -17 28 2 34 6
34 25 0 17 -5 23 -22 22 -20 0 -21 -1 -5 -8 17 -6 17 -8 3 -20 -24 -20 -48 -6
-44 26 2 23 8 28 31 28 30 -1 36 9 11 19 -22 8 -22 8 -44 -14z"/>
<path d="M5020 5975 c0 -25 5 -45 10 -45 6 0 10 20 10 45 0 25 -4 45 -10 45
-5 0 -10 -20 -10 -45z"/>
<path d="M5128 6010 c-5 -17 3 -80 11 -80 7 0 6 79 -2 86 -3 3 -7 0 -9 -6z"/>
<path d="M5428 6008 c-3 -7 -4 -24 -2 -38 1 -14 3 -28 3 -32 1 -5 4 -8 9 -8 7
0 7 78 -1 86 -2 3 -7 -1 -9 -8z"/>
<path d="M5668 6010 c-5 -17 3 -80 11 -80 7 0 6 79 -2 86 -3 3 -7 0 -9 -6z"/>
<path d="M5050 5964 c0 -19 5 -34 10 -34 6 0 10 14 10 31 0 39 22 34 32 -7 6
-27 6 -27 5 6 -2 31 -5 35 -29 36 -25 1 -28 -2 -28 -32z"/>
<path d="M5171 5986 c-27 -33 14 -76 43 -46 8 9 6 11 -11 6 -12 -4 -24 -2 -28
4 -4 6 4 10 20 10 20 0 26 4 23 17 -4 23 -31 28 -47 9z m34 -6 c3 -5 -1 -10
-9 -10 -9 0 -16 5 -16 10 0 6 4 10 9 10 6 0 13 -4 16 -10z"/>
<path d="M5241 5961 c1 -28 3 -30 6 -11 3 14 9 30 14 36 5 7 3 11 -6 11 -11 0
-15 -11 -14 -36z"/>
<path d="M5281 5960 l1 -35 7 30 c3 17 11 30 16 30 5 0 13 -13 16 -30 6 -29 7
-29 8 7 1 34 -1 38 -24 36 -22 -2 -25 -7 -24 -38z"/>
<path d="M5354 5986 c-15 -39 23 -74 50 -46 8 9 6 11 -11 6 -12 -4 -24 -2 -28
4 -4 6 4 10 19 10 28 0 33 9 14 28 -16 16 -37 15 -44 -2z m41 -6 c3 -5 -3 -10
-15 -10 -12 0 -18 5 -15 10 3 6 10 10 15 10 5 0 12 -4 15 -10z"/>
<path d="M5604 5989 c-4 -8 -3 -9 4 -5 7 4 18 4 24 0 9 -6 5 -10 -12 -14 -36
-9 -32 -34 6 -38 31 -3 32 -2 25 30 -7 34 -33 49 -47 27z m31 -39 c-3 -5 -10
-10 -16 -10 -5 0 -9 5 -9 10 0 6 7 10 16 10 8 0 12 -4 9 -10z"/>
<path d="M5711 5986 c-17 -20 -4 -56 19 -56 10 0 21 4 24 9 4 5 -3 7 -14 4
-11 -3 -20 0 -20 6 0 6 9 11 21 11 14 0 19 5 17 17 -4 23 -31 28 -47 9z m34
-6 c3 -5 -1 -10 -10 -10 -9 0 -13 5 -10 10 3 6 8 10 10 10 2 0 7 -4 10 -10z"/>
<path d="M5775 5979 c4 -13 11 -31 16 -39 7 -12 10 -10 15 9 l7 23 13 -23 12
-24 11 28 c15 39 13 57 -3 28 l-13 -23 -7 23 -6 24 -15 -25 c-10 -18 -14 -20
-15 -8 0 9 -5 20 -11 24 -8 4 -9 -1 -4 -17z"/>
<path d="M5874 5989 c-4 -8 0 -9 15 -4 11 3 21 2 21 -3 0 -5 -9 -12 -20 -15
-33 -8 -25 -37 10 -37 31 0 34 7 24 48 -7 23 -38 30 -50 11z m36 -39 c0 -5 -7
-10 -16 -10 -8 0 -12 5 -9 10 3 6 10 10 16 10 5 0 9 -4 9 -10z"/>
<path d="M5941 5993 c-1 -6 4 -24 9 -39 8 -19 7 -31 -2 -42 -11 -13 -10 -14 2
-10 8 2 23 27 33 54 14 39 14 45 2 30 -8 -11 -15 -25 -15 -30 -1 -6 -7 3 -15
19 -7 17 -14 25 -14 18z"/>
<path d="M7227 5929 c7 -7 15 -10 18 -7 3 3 -2 9 -12 12 -14 6 -15 5 -6 -5z"/>
<path d="M2362 5588 c-27 -27 -5 -88 32 -88 24 0 54 26 42 37 -3 4 -12 -2 -20
-12 -19 -27 -46 -12 -46 25 0 36 23 49 52 31 16 -10 19 -10 16 1 -6 17 -60 22
-76 6z"/>
<path d="M2648 5589 c-6 -18 4 -89 12 -89 5 0 7 12 6 28 -2 15 -1 32 2 37 12
19 10 35 -3 35 -7 0 -15 -5 -17 -11z"/>
<path d="M2868 5588 c-6 -17 2 -88 11 -88 7 0 7 88 -1 95 -3 3 -8 0 -10 -7z"/>
<path d="M2577 5584 c-3 -3 -13 -7 -24 -8 -13 -2 -19 -13 -21 -39 -2 -21 1
-37 7 -37 6 0 11 13 11 29 0 16 6 31 15 35 12 4 15 -3 15 -29 0 -26 4 -35 16
-35 13 0 14 3 4 15 -7 8 -10 25 -6 39 6 23 -5 42 -17 30z"/>
<path d="M2460 5566 c-20 -26 -8 -61 23 -64 15 -2 27 2 27 8 0 7 -8 9 -20 5
-11 -4 -20 -2 -20 4 0 6 9 11 19 11 26 0 36 17 21 35 -16 19 -34 19 -50 1z
m35 -6 c3 -5 -1 -10 -10 -10 -9 0 -13 5 -10 10 3 6 8 10 10 10 2 0 7 -4 10
-10z"/>
<path d="M2623 5540 c0 -25 2 -35 4 -22 2 12 2 32 0 45 -2 12 -4 2 -4 -23z"/>
<path d="M2693 5540 c0 -25 2 -35 4 -22 2 12 2 32 0 45 -2 12 -4 2 -4 -23z"/>
<path d="M2718 5555 c-8 -19 -8 -28 2 -40 16 -19 46 -19 54 0 3 8 1 15 -3 15
-5 0 -11 -5 -13 -12 -6 -17 -28 0 -28 22 0 22 16 35 25 20 3 -5 11 -10 17 -10
7 0 6 6 -2 15 -18 22 -39 18 -52 -10z"/>
<path d="M2797 5573 c-4 -3 -7 -11 -7 -17 0 -6 5 -5 12 2 14 14 28 16 28 3 0
-5 -9 -13 -20 -16 -11 -3 -20 -15 -20 -26 0 -15 7 -19 35 -19 23 0 33 4 31 13
-3 6 -7 24 -10 40 -6 26 -33 37 -49 20z m33 -48 c0 -8 -7 -15 -15 -15 -26 0
-18 20 13 29 1 1 2 -6 2 -14z"/>
<path d="M2910 5565 c-20 -24 -4 -65 25 -65 13 0 27 5 31 11 4 7 0 9 -14 5
-11 -4 -23 -2 -27 4 -4 6 4 10 19 10 28 0 34 18 14 38 -16 16 -33 15 -48 -3z
m35 -5 c3 -5 -1 -10 -10 -10 -9 0 -13 5 -10 10 3 6 8 10 10 10 2 0 7 -4 10
-10z"/>
<path d="M1009 5528 c-15 -34 4 -78 34 -78 24 0 47 17 47 34 0 5 -9 1 -20 -9
-16 -15 -22 -15 -35 -5 -20 17 -19 59 1 67 9 3 26 1 36 -6 16 -10 19 -10 16 1
-3 7 -19 14 -36 16 -25 3 -34 -2 -43 -20z"/>
<path d="M1113 5500 c0 -30 2 -43 4 -27 2 15 2 39 0 55 -2 15 -4 2 -4 -28z"/>
<path d="M1340 5535 c0 -8 -6 -12 -13 -9 -19 7 -39 -20 -35 -48 2 -17 11 -24
31 -26 26 -3 27 -2 27 47 0 28 -2 51 -5 51 -3 0 -5 -7 -5 -15z m-2 -47 c-4
-27 -23 -34 -32 -13 -8 21 1 35 20 35 10 0 14 -8 12 -22z"/>
<path d="M1370 5538 c0 -26 21 -88 30 -88 5 0 12 16 16 35 7 40 19 38 27 -5 9
-43 23 -37 36 16 12 45 8 76 -5 38 -15 -48 -17 -49 -27 -16 -5 17 -13 32 -17
32 -5 0 -13 -15 -20 -32 l-12 -33 -9 33 c-10 32 -19 42 -19 20z"/>
<path d="M1680 5500 c0 -55 17 -69 22 -17 4 41 21 38 29 -5 l6 -33 2 38 c1 31
-3 40 -19 44 -11 3 -20 9 -20 14 0 5 -4 9 -10 9 -5 0 -10 -22 -10 -50z"/>
<path d="M7040 5500 c0 -27 5 -50 10 -50 6 0 10 23 10 50 0 28 -4 50 -10 50
-5 0 -10 -22 -10 -50z"/>
<path d="M7100 5525 c-6 -14 -14 -36 -20 -50 -5 -14 -6 -25 -1 -25 5 0 11 7
15 15 3 8 15 15 26 15 11 0 20 -7 20 -15 0 -8 5 -15 10 -15 13 0 13 -2 -6 53
-18 53 -30 59 -44 22z m30 -27 c0 -5 -4 -8 -10 -8 -5 0 -10 10 -10 23 0 18 2
19 10 7 5 -8 10 -18 10 -22z"/>
<path d="M7170 5500 c0 -54 19 -71 21 -17 l1 32 10 -32 c14 -43 23 -42 39 5
l14 37 6 -40 c6 -39 6 -39 8 13 1 62 -15 67 -35 11 l-12 -34 -11 28 c-6 16
-11 33 -11 38 0 5 -7 9 -15 9 -11 0 -15 -12 -15 -50z"/>
<path d="M7997 5544 c-15 -16 -5 -36 23 -45 17 -6 30 -15 30 -20 0 -17 -30
-22 -47 -8 -14 12 -16 12 -11 -1 6 -20 52 -24 67 -6 15 18 7 34 -25 46 -25 10
-33 30 -11 30 7 0 19 -6 26 -12 11 -11 13 -10 9 2 -5 16 -49 26 -61 14z"/>
<path d="M8090 5523 c0 -16 -3 -38 -6 -50 -4 -13 -2 -23 4 -23 6 0 12 17 14
38 l3 37 22 -37 c12 -21 27 -38 33 -38 5 0 10 22 10 50 0 28 -4 50 -10 50 -5
0 -10 -17 -10 -37 l0 -38 -22 38 c-26 44 -38 47 -38 10z"/>
<path d="M8187 5537 c-6 -16 10 -37 29 -37 6 0 17 -7 24 -15 10 -12 9 -16 -5
-21 -9 -4 -21 -2 -28 5 -16 16 -27 14 -20 -5 4 -10 16 -14 37 -12 25 2 31 7
31 28 0 17 -7 26 -24 30 -14 3 -26 11 -29 18 -5 16 30 16 47 0 11 -11 13 -10
9 2 -6 20 -64 26 -71 7z"/>
<path d="M1577 5533 c-6 -11 4 -83 12 -83 3 0 6 18 6 39 -1 39 -9 60 -18 44z"/>
<path d="M1140 5515 c-20 -24 -4 -65 25 -65 18 0 26 7 31 25 7 27 -9 55 -31
55 -7 0 -18 -7 -25 -15z m43 -35 c-7 -28 -33 -25 -33 3 0 13 3 27 7 30 11 12
31 -13 26 -33z"/>
<path d="M1221 5493 c-1 -41 0 -43 29 -43 28 0 30 3 30 34 0 45 -18 56 -22 14
-4 -42 -21 -39 -29 4 -6 32 -6 31 -8 -9z"/>
<path d="M1507 5523 c-4 -3 -7 -11 -7 -17 0 -6 5 -5 12 2 14 14 28 16 28 3 0
-5 -9 -13 -20 -16 -11 -3 -20 -15 -20 -26 0 -15 7 -19 35 -19 23 0 33 4 31 13
-3 6 -7 24 -10 40 -6 26 -33 37 -49 20z m33 -48 c0 -8 -7 -15 -15 -15 -26 0
-18 20 13 29 1 1 2 -6 2 -14z"/>
<path d="M1621 5516 c-21 -25 -10 -61 18 -61 13 0 26 7 29 15 4 12 2 13 -9 3
-7 -7 -16 -13 -20 -13 -14 0 -19 33 -8 46 9 12 15 12 27 2 13 -11 14 -10 10 2
-7 21 -32 24 -47 6z"/>
<path d="M4500 5296 l0 -205 55 -6 c30 -4 72 -5 94 -3 38 3 40 2 46 -29 3 -18
5 -82 4 -144 l-1 -111 -24 6 c-29 8 -29 5 -4 -42 35 -67 36 -68 54 -34 9 18
21 43 26 57 9 23 8 25 -13 20 -22 -6 -22 -6 -20 117 1 68 2 131 2 141 1 15 12
17 96 17 l95 0 0 210 0 210 -205 0 -205 0 0 -204z m120 149 c7 -8 21 -15 31
-15 9 0 24 7 33 15 8 8 17 15 21 15 4 0 13 -7 21 -15 9 -8 24 -15 33 -15 10 0
24 7 31 15 17 21 21 19 53 -20 27 -34 27 -36 11 -60 -16 -25 -16 -29 -1 -61
37 -78 14 -118 -88 -152 l-59 -20 -63 20 c-34 11 -71 29 -82 40 -25 23 -27 65
-4 112 15 32 15 36 -1 61 -16 24 -16 26 11 60 32 39 36 41 53 20z"/>
<path d="M4683 5423 c-18 -12 -29 -13 -55 -4 -45 16 -65 -4 -51 -51 8 -26 6
-43 -9 -82 -24 -63 -13 -81 73 -116 l64 -25 60 23 c93 37 107 64 67 139 -8 14
-8 31 0 57 10 30 9 39 -3 52 -12 11 -21 12 -47 3 -26 -9 -37 -8 -55 4 -19 13
-25 13 -44 0z m129 -66 c-2 -28 3 -57 13 -77 27 -53 15 -67 -84 -99 -54 -17
-171 24 -171 60 0 6 7 24 16 41 11 21 14 45 10 73 -3 23 -4 44 -1 46 2 2 52 4
112 3 l108 -1 -3 -46z"/>
<path d="M4617 5352 c4 -20 -1 -48 -12 -73 -22 -47 -17 -55 52 -78 44 -15 52
-15 96 0 69 23 74 31 52 78 -11 25 -16 53 -12 73 l5 33 -93 0 -93 0 5 -33z
m73 -32 c0 -5 -8 -10 -17 -11 -14 0 -13 -2 5 -9 12 -5 22 -16 22 -24 0 -19
-36 -40 -45 -26 -3 5 1 10 9 10 9 0 16 5 16 10 0 6 -7 10 -15 10 -9 0 -15 9
-15 25 0 18 5 25 20 25 11 0 20 -4 20 -10z m66 -6 c-4 -9 -2 -22 4 -29 15 -18
-15 -47 -38 -37 -14 6 -14 7 6 10 25 4 30 22 6 22 -10 0 -14 6 -11 14 3 7 0
19 -6 25 -8 8 -4 11 17 11 22 0 27 -4 22 -16z"/>
<path d="M2390 5380 c0 -54 19 -71 21 -17 l1 32 11 -33 c12 -40 27 -37 43 9
l12 34 4 -40 c4 -37 5 -36 6 13 2 61 -9 67 -30 15 l-14 -38 -14 38 c-20 54
-40 48 -40 -13z"/>
<path d="M2517 5403 c-4 -3 -7 -11 -7 -17 0 -6 5 -5 12 2 14 14 28 16 28 3 0
-5 -9 -13 -20 -16 -11 -3 -20 -15 -20 -26 0 -15 7 -19 35 -19 23 0 33 4 31 13
-3 6 -7 24 -10 40 -6 26 -33 37 -49 20z m33 -48 c0 -8 -7 -15 -15 -15 -26 0
-18 20 13 29 1 1 2 -6 2 -14z"/>
<path d="M2591 5365 c2 -40 2 -40 8 -7 8 43 25 46 29 5 4 -40 22 -44 22 -5 0
37 -11 51 -38 49 -19 -1 -22 -7 -21 -42z"/>
<path d="M2675 5400 c-4 -6 -4 -14 -1 -17 3 -3 1 -12 -5 -19 -16 -19 -3 -33
29 -32 27 1 28 3 23 37 -6 36 -32 54 -46 31z m30 -10 c3 -5 -1 -10 -10 -10 -9
0 -13 5 -10 10 3 6 8 10 10 10 2 0 7 -4 10 -10z m-3 -42 c-6 -6 -15 -8 -19 -4
-4 4 -1 11 7 16 19 12 27 3 12 -12z"/>
<path d="M2750 5395 c-19 -23 -8 -59 20 -65 15 -4 20 -9 13 -13 -6 -4 -19 -4
-30 -1 -14 5 -15 4 -7 -5 7 -7 20 -11 30 -9 15 2 20 14 22 53 3 44 0 51 -17
52 -11 1 -25 -5 -31 -12z m38 -27 c-4 -27 -23 -34 -32 -13 -8 21 1 35 20 35
10 0 14 -8 12 -22z"/>
<path d="M2831 5396 c-21 -25 -10 -61 19 -61 22 0 25 4 25 35 0 38 -23 52 -44
26z m34 -6 c3 -5 -1 -10 -10 -10 -9 0 -13 5 -10 10 3 6 8 10 10 10 2 0 7 -4
10 -10z m-3 -42 c-9 -9 -15 -9 -24 0 -9 9 -7 12 12 12 19 0 21 -3 12 -12z"/>
<path d="M2901 5365 c1 -27 3 -32 6 -15 3 14 12 33 20 42 14 15 13 17 -6 15
-18 -1 -21 -7 -20 -42z"/>
<path d="M5091 5293 c1 -26 4 -38 6 -25 3 13 12 22 22 22 10 0 23 -10 29 -22
9 -20 10 -17 9 22 -2 43 -3 45 -34 48 l-33 3 1 -48z m54 22 c0 -5 -10 -11 -22
-13 -16 -2 -23 2 -23 13 0 11 7 15 23 13 12 -2 22 -7 22 -13z"/>
<path d="M5328 5328 c-7 -16 2 -78 11 -78 7 0 6 79 -2 86 -2 3 -7 -1 -9 -8z"/>
<path d="M5470 5315 c0 -19 5 -25 17 -23 10 2 19 -5 21 -16 3 -15 0 -18 -17
-13 -12 3 -21 1 -21 -4 0 -16 48 -10 54 7 7 19 -10 44 -30 44 -23 0 -16 18 9
23 19 4 18 4 -5 6 -24 1 -28 -3 -28 -24z"/>
<path d="M5547 5333 c-14 -13 -6 -25 8 -13 9 7 18 10 22 7 3 -4 0 -13 -7 -22
-8 -10 -9 -15 -1 -15 6 0 11 -7 11 -15 0 -18 -12 -19 -28 -3 -9 9 -12 8 -12
-6 0 -13 7 -17 28 -14 24 3 27 7 25 38 0 19 -1 38 -2 43 -1 9 -35 9 -44 0z"/>
<path d="M5180 5305 c-18 -21 -3 -55 25 -55 15 0 25 7 28 22 11 39 -28 64 -53
33z m40 -20 c0 -16 -6 -25 -15 -25 -15 0 -21 31 -8 43 13 14 23 6 23 -18z"/>
<path d="M5253 5290 c2 -30 6 -35 30 -38 24 -3 27 0 27 27 0 16 -4 33 -10 36
-6 4 -10 -7 -10 -25 0 -40 -22 -36 -32 6 -6 27 -6 27 -5 -6z"/>
<path d="M5361 5302 c-12 -23 4 -52 29 -52 11 0 20 4 20 9 0 5 -9 7 -20 4 -11
-3 -20 0 -20 6 0 6 11 11 25 11 27 0 32 9 13 28 -17 17 -36 15 -47 -6z m39 -2
c0 -5 -7 -10 -16 -10 -8 0 -12 5 -9 10 3 6 10 10 16 10 5 0 9 -4 9 -10z"/>
<path d="M6180 5033 l0 -123 125 0 125 0 0 119 c0 77 4 121 11 123 6 2 -50 4
-125 4 l-136 0 0 -123z m171 77 c10 -6 26 -24 34 -41 13 -25 14 -37 5 -65 -28
-84 -135 -87 -170 -4 -31 75 57 149 131 110z"/>
<path d="M6262 5103 c-15 -6 -42 -56 -42 -77 0 -8 12 -28 26 -45 33 -40 80
-42 114 -6 62 66 -12 163 -98 128z m76 -51 c2 -13 -4 -35 -14 -49 l-17 -27
-18 23 c-19 23 -25 62 -12 75 4 4 19 6 33 4 17 -2 26 -10 28 -26z"/>
<path d="M6280 5047 c0 -13 6 -32 14 -42 13 -18 14 -18 25 3 20 37 14 62 -14
62 -19 0 -25 -5 -25 -23z m38 2 c-2 -6 -8 -10 -13 -10 -5 0 -11 4 -13 10 -2 6
4 11 13 11 9 0 15 -5 13 -11z"/>
<path d="M6488 5153 c7 -3 16 -2 19 1 4 3 -2 6 -13 5 -11 0 -14 -3 -6 -6z"/>
<path d="M6548 5153 c7 -3 16 -2 19 1 4 3 -2 6 -13 5 -11 0 -14 -3 -6 -6z"/>
<path d="M6608 5153 c7 -3 16 -2 19 1 4 3 -2 6 -13 5 -11 0 -14 -3 -6 -6z"/>
<path d="M6668 5153 c7 -3 16 -2 19 1 4 3 -2 6 -13 5 -11 0 -14 -3 -6 -6z"/>
<path d="M6728 5153 c7 -3 16 -2 19 1 4 3 -2 6 -13 5 -11 0 -14 -3 -6 -6z"/>
<path d="M6788 5153 c7 -3 16 -2 19 1 4 3 -2 6 -13 5 -11 0 -14 -3 -6 -6z"/>
<path d="M6848 5153 c7 -3 16 -2 19 1 4 3 -2 6 -13 5 -11 0 -14 -3 -6 -6z"/>
<path d="M6908 5153 c7 -3 16 -2 19 1 4 3 -2 6 -13 5 -11 0 -14 -3 -6 -6z"/>
<path d="M6968 5153 c7 -3 16 -2 19 1 4 3 -2 6 -13 5 -11 0 -14 -3 -6 -6z"/>
<path d="M7028 5153 c7 -3 16 -2 19 1 4 3 -2 6 -13 5 -11 0 -14 -3 -6 -6z"/>
<path d="M7088 5153 c7 -3 16 -2 19 1 4 3 -2 6 -13 5 -11 0 -14 -3 -6 -6z"/>
<path d="M7148 5153 c7 -3 16 -2 19 1 4 3 -2 6 -13 5 -11 0 -14 -3 -6 -6z"/>
<path d="M7208 5153 c7 -3 16 -2 19 1 4 3 -2 6 -13 5 -11 0 -14 -3 -6 -6z"/>
<path d="M7268 5153 c7 -3 16 -2 19 1 4 3 -2 6 -13 5 -11 0 -14 -3 -6 -6z"/>
<path d="M7328 5153 c7 -3 16 -2 19 1 4 3 -2 6 -13 5 -11 0 -14 -3 -6 -6z"/>
<path d="M7388 5153 c7 -3 16 -2 19 1 4 3 -2 6 -13 5 -11 0 -14 -3 -6 -6z"/>
<path d="M7448 5153 c7 -3 16 -2 19 1 4 3 -2 6 -13 5 -11 0 -14 -3 -6 -6z"/>
<path d="M7508 5153 c7 -3 16 -2 19 1 4 3 -2 6 -13 5 -11 0 -14 -3 -6 -6z"/>
<path d="M7568 5153 c7 -3 16 -2 19 1 4 3 -2 6 -13 5 -11 0 -14 -3 -6 -6z"/>
<path d="M7628 5153 c7 -3 16 -2 19 1 4 3 -2 6 -13 5 -11 0 -14 -3 -6 -6z"/>
<path d="M7688 5153 c7 -3 16 -2 19 1 4 3 -2 6 -13 5 -11 0 -14 -3 -6 -6z"/>
<path d="M7748 5153 c7 -3 16 -2 19 1 4 3 -2 6 -13 5 -11 0 -14 -3 -6 -6z"/>
<path d="M7808 5153 c7 -3 16 -2 19 1 4 3 -2 6 -13 5 -11 0 -14 -3 -6 -6z"/>
<path d="M7868 5153 c7 -3 16 -2 19 1 4 3 -2 6 -13 5 -11 0 -14 -3 -6 -6z"/>
<path d="M7928 5153 c7 -3 16 -2 19 1 4 3 -2 6 -13 5 -11 0 -14 -3 -6 -6z"/>
<path d="M7988 5153 c7 -3 16 -2 19 1 4 3 -2 6 -13 5 -11 0 -14 -3 -6 -6z"/>
<path d="M8048 5153 c7 -3 16 -2 19 1 4 3 -2 6 -13 5 -11 0 -14 -3 -6 -6z"/>
<path d="M8108 5153 c7 -3 16 -2 19 1 4 3 -2 6 -13 5 -11 0 -14 -3 -6 -6z"/>
<path d="M8168 5153 c7 -3 16 -2 19 1 4 3 -2 6 -13 5 -11 0 -14 -3 -6 -6z"/>
<path d="M8228 5153 c7 -3 16 -2 19 1 4 3 -2 6 -13 5 -11 0 -14 -3 -6 -6z"/>
<path d="M8288 5153 c7 -3 16 -2 19 1 4 3 -2 6 -13 5 -11 0 -14 -3 -6 -6z"/>
<path d="M8348 5153 c7 -3 16 -2 19 1 4 3 -2 6 -13 5 -11 0 -14 -3 -6 -6z"/>
<path d="M8408 5153 c7 -3 16 -2 19 1 4 3 -2 6 -13 5 -11 0 -14 -3 -6 -6z"/>
<path d="M8468 5153 c7 -3 16 -2 19 1 4 3 -2 6 -13 5 -11 0 -14 -3 -6 -6z"/>
<path d="M8528 5153 c7 -3 16 -2 19 1 4 3 -2 6 -13 5 -11 0 -14 -3 -6 -6z"/>
<path d="M8588 5153 c7 -3 16 -2 19 1 4 3 -2 6 -13 5 -11 0 -14 -3 -6 -6z"/>
<path d="M979 5128 c-1 -10 -2 -64 -2 -120 l-1 -103 122 -3 122 -3 0 120 c0
71 4 121 10 123 6 2 -48 3 -120 3 -117 0 -130 -2 -131 -17z m183 -45 c39 -37
38 -84 -1 -124 -37 -37 -79 -38 -120 -3 -41 34 -43 86 -4 126 36 38 86 38 125
1z"/>
<path d="M1045 5075 c-50 -49 -15 -135 55 -135 41 0 80 39 80 80 0 41 -39 80
-80 80 -19 0 -40 -9 -55 -25z m85 -20 c11 -13 10 -22 -3 -50 -9 -19 -21 -35
-27 -35 -6 0 -18 16 -27 35 -13 28 -14 37 -3 50 7 8 20 15 30 15 10 0 23 -7
30 -15z"/>
<path d="M1074 5046 c-6 -17 12 -56 26 -56 14 0 32 39 26 56 -3 8 -15 14 -26
14 -11 0 -23 -6 -26 -14z m36 -11 c0 -8 -4 -15 -10 -15 -5 0 -10 7 -10 15 0 8
5 15 10 15 6 0 10 -7 10 -15z"/>
<path d="M6530 5060 c0 -5 5 -10 10 -10 6 0 10 5 10 10 0 6 -4 10 -10 10 -5 0
-10 -4 -10 -10z"/>
<path d="M6743 5025 c0 -27 2 -38 4 -22 2 15 2 37 0 50 -2 12 -4 0 -4 -28z"/>
<path d="M6831 5028 c-1 -45 1 -48 24 -48 14 0 25 4 25 10 0 5 -7 7 -15 4 -19
-8 -32 23 -16 39 8 8 15 6 27 -9 14 -18 15 -18 4 4 -7 14 -17 21 -25 18 -8 -3
-16 3 -18 12 -3 9 -5 -4 -6 -30z"/>
<path d="M1320 5050 c0 -5 5 -10 10 -10 6 0 10 5 10 10 0 6 -4 10 -10 10 -5 0
-10 -4 -10 -10z"/>
<path d="M1533 5015 c0 -27 2 -38 4 -22 2 15 2 37 0 50 -2 12 -4 0 -4 -28z"/>
<path d="M1621 5018 c-1 -45 1 -48 24 -48 14 0 25 4 25 10 0 5 -7 7 -15 4 -19
-8 -32 23 -16 39 8 8 15 6 27 -9 14 -18 15 -18 4 4 -7 14 -17 21 -25 18 -8 -3
-16 3 -18 12 -3 9 -5 -4 -6 -30z"/>
<path d="M6980 5027 c0 -20 3 -38 8 -40 9 -6 8 61 -2 70 -3 3 -6 -10 -6 -30z"/>
<path d="M1770 5017 c0 -20 3 -38 8 -40 9 -6 8 61 -2 70 -3 3 -6 -10 -6 -30z"/>
<path d="M6581 5049 c-1 -3 4 -20 10 -37 10 -30 29 -36 29 -10 0 6 -3 8 -7 4
-4 -3 -12 6 -19 21 -7 16 -13 25 -13 22z"/>
<path d="M6655 5041 c-3 -7 0 -8 9 -5 23 9 19 -9 -4 -24 -25 -15 -17 -32 14
-30 20 2 22 6 17 32 -7 31 -25 44 -36 27z m25 -41 c0 -5 -7 -10 -16 -10 -8 0
-12 5 -9 10 3 6 10 10 16 10 5 0 9 -4 9 -10z"/>
<path d="M6775 5041 c-3 -7 0 -8 9 -5 23 9 19 -9 -4 -24 -25 -15 -17 -32 14
-30 20 2 22 6 17 32 -7 31 -25 44 -36 27z m25 -41 c0 -5 -7 -10 -16 -10 -8 0
-12 5 -9 10 3 6 10 10 16 10 5 0 9 -4 9 -10z"/>
<path d="M6903 5015 c0 -22 2 -30 4 -17 2 12 2 30 0 40 -3 9 -5 -1 -4 -23z"/>
<path d="M7016 5025 c4 -16 7 -38 8 -47 0 -9 3 -15 7 -12 10 6 32 74 26 80 -2
3 -8 -8 -12 -23 l-8 -28 -14 30 -14 30 7 -30z"/>
<path d="M7119 5041 c11 -7 10 -13 -4 -35 l-17 -26 28 1 c22 0 25 2 11 7 -16
7 -16 9 -3 27 21 28 20 35 -6 35 -17 0 -19 -3 -9 -9z"/>
<path d="M7170 5035 c-16 -19 -3 -55 20 -55 23 0 36 36 20 55 -7 8 -16 15 -20
15 -4 0 -13 -7 -20 -15z m37 -11 c8 -21 -13 -42 -28 -27 -13 13 -5 43 11 43 6
0 13 -7 17 -16z"/>
<path d="M7243 5043 c-7 -2 -12 -19 -12 -36 l1 -32 7 29 c8 39 29 44 34 9 l4
-28 -1 29 c-1 30 -11 38 -33 29z"/>
<path d="M7313 5043 c-18 -7 -16 -52 3 -60 8 -3 20 -1 26 5 8 8 5 9 -11 5 -12
-3 -21 -1 -21 6 0 6 9 11 21 11 14 0 19 5 17 17 -3 18 -16 24 -35 16z m27 -13
c0 -5 -7 -10 -16 -10 -8 0 -12 5 -9 10 3 6 10 10 16 10 5 0 9 -4 9 -10z"/>
<path d="M1371 5039 c-1 -3 4 -20 10 -37 10 -30 29 -36 29 -10 0 6 -3 8 -7 4
-4 -3 -12 6 -19 21 -7 16 -13 25 -13 22z"/>
<path d="M1445 5031 c-3 -7 0 -8 9 -5 23 9 19 -9 -4 -24 -25 -15 -17 -32 14
-30 20 2 22 6 17 32 -7 31 -25 44 -36 27z m25 -41 c0 -5 -7 -10 -16 -10 -8 0
-12 5 -9 10 3 6 10 10 16 10 5 0 9 -4 9 -10z"/>
<path d="M1565 5031 c-3 -7 0 -8 9 -5 23 9 19 -9 -4 -24 -25 -15 -17 -32 14
-30 20 2 22 6 17 32 -7 31 -25 44 -36 27z m25 -41 c0 -5 -7 -10 -16 -10 -8 0
-12 5 -9 10 3 6 10 10 16 10 5 0 9 -4 9 -10z"/>
<path d="M1693 5005 c0 -22 2 -30 4 -17 2 12 2 30 0 40 -3 9 -5 -1 -4 -23z"/>
<path d="M1806 5015 c4 -16 7 -38 8 -47 0 -9 3 -15 7 -12 10 6 32 74 26 80 -2
3 -8 -8 -12 -23 l-8 -28 -14 30 -14 30 7 -30z"/>
<path d="M1909 5031 c11 -7 10 -13 -4 -35 l-17 -26 28 1 c22 0 25 2 11 7 -16
7 -16 9 -3 27 21 28 20 35 -6 35 -17 0 -19 -3 -9 -9z"/>
<path d="M1960 5025 c-16 -19 -3 -55 20 -55 23 0 36 36 20 55 -7 8 -16 15 -20
15 -4 0 -13 -7 -20 -15z m37 -11 c8 -21 -13 -42 -28 -27 -13 13 -5 43 11 43 6
0 13 -7 17 -16z"/>
<path d="M2033 5033 c-7 -2 -12 -19 -12 -36 l1 -32 7 29 c8 39 29 44 34 9 l4
-28 -1 29 c-1 30 -11 38 -33 29z"/>
<path d="M2103 5033 c-18 -7 -16 -52 3 -60 8 -3 20 -1 26 5 8 8 5 9 -11 5 -12
-3 -21 -1 -21 6 0 6 9 11 21 11 14 0 19 5 17 17 -3 18 -16 24 -35 16z m27 -13
c0 -5 -7 -10 -16 -10 -8 0 -12 5 -9 10 3 6 10 10 16 10 5 0 9 -4 9 -10z"/>
<path d="M6512 5007 c-10 -27 -9 -29 2 -14 7 9 19 17 26 17 7 0 19 -8 26 -17
12 -15 12 -13 3 15 -9 25 -14 30 -20 20 -7 -10 -11 -10 -17 -1 -5 8 -12 2 -20
-20z"/>
<path d="M6712 5010 c0 -19 2 -27 5 -17 2 9 2 25 0 35 -3 9 -5 1 -5 -18z"/>
<path d="M6952 5010 c0 -19 2 -27 5 -17 2 9 2 25 0 35 -3 9 -5 1 -5 -18z"/>
<path d="M1302 4997 c-10 -27 -9 -29 2 -14 7 9 19 17 26 17 7 0 19 -8 26 -17
12 -15 12 -13 3 15 -9 25 -14 30 -20 20 -7 -10 -11 -10 -17 -1 -5 8 -12 2 -20
-20z"/>
<path d="M1502 5000 c0 -19 2 -27 5 -17 2 9 2 25 0 35 -3 9 -5 1 -5 -18z"/>
<path d="M1742 5000 c0 -19 2 -27 5 -17 2 9 2 25 0 35 -3 9 -5 1 -5 -18z"/>
<path d="M6931 4994 c0 -11 3 -14 6 -6 3 7 2 16 -1 19 -3 4 -6 -2 -5 -13z"/>
<path d="M1721 4984 c0 -11 3 -14 6 -6 3 7 2 16 -1 19 -3 4 -6 -2 -5 -13z"/>
<path d="M3581 4861 c-8 -5 -11 -16 -8 -25 5 -14 18 -16 64 -14 50 3 58 6 58
23 0 17 -8 20 -50 23 -27 1 -56 -2 -64 -7z"/>
<path d="M3821 4861 c-8 -5 -11 -16 -8 -25 5 -14 18 -16 64 -14 50 3 58 6 58
23 0 17 -8 20 -50 23 -27 1 -56 -2 -64 -7z"/>
<path d="M4061 4861 c-8 -5 -11 -16 -8 -25 5 -14 18 -16 64 -14 50 3 58 6 58
23 0 17 -8 20 -50 23 -27 1 -56 -2 -64 -7z"/>
<path d="M4301 4861 c-8 -5 -11 -16 -8 -25 5 -14 18 -16 64 -14 50 3 58 6 58
23 0 17 -8 20 -50 23 -27 1 -56 -2 -64 -7z"/>
<path d="M4541 4861 c-8 -5 -11 -16 -8 -25 5 -14 18 -16 64 -14 50 3 58 6 58
23 0 17 -8 20 -50 23 -27 1 -56 -2 -64 -7z"/>
<path d="M4774 4855 c-11 -26 10 -36 67 -33 46 3 54 6 54 23 0 17 -8 20 -58
23 -45 2 -59 0 -63 -13z"/>
<path d="M5021 4861 c-8 -5 -11 -16 -8 -25 5 -14 18 -16 64 -14 50 3 58 6 58
23 0 17 -8 20 -50 23 -27 1 -56 -2 -64 -7z"/>
<path d="M5261 4861 c-8 -5 -11 -16 -8 -25 5 -14 18 -16 64 -14 50 3 58 6 58
23 0 17 -8 20 -50 23 -27 1 -56 -2 -64 -7z"/>
<path d="M5501 4861 c-8 -5 -11 -16 -8 -25 5 -14 18 -16 64 -14 50 3 58 6 58
23 0 17 -8 20 -50 23 -27 1 -56 -2 -64 -7z"/>
<path d="M5741 4861 c-8 -5 -11 -16 -8 -25 5 -14 18 -16 64 -14 50 3 58 6 58
23 0 17 -8 20 -50 23 -27 1 -56 -2 -64 -7z"/>
<path d="M5981 4861 c-8 -5 -11 -16 -8 -25 5 -14 18 -16 64 -14 50 3 58 6 58
23 0 17 -8 20 -50 23 -27 1 -56 -2 -64 -7z"/>
<path d="M3554 4796 c-3 -7 -4 -35 -2 -62 3 -41 6 -49 23 -49 17 0 20 8 23 54
2 37 -1 57 -10 62 -19 12 -28 11 -34 -5z"/>
<path d="M6084 4727 c-3 -8 -4 -36 -2 -63 3 -41 6 -49 23 -49 18 0 20 7 20 60
0 49 -3 60 -18 63 -9 2 -20 -3 -23 -11z"/>
<path d="M6240 4580 l0 -120 120 0 120 0 0 120 0 120 -120 0 -120 0 0 -120z
m150 80 c11 -11 20 -27 20 -35 0 -8 5 -15 10 -15 6 0 10 -28 10 -65 l0 -65
-70 0 -70 0 0 65 c0 37 4 65 10 65 6 0 10 7 10 15 0 17 35 55 50 55 6 0 19 -9
30 -20z"/>
<path d="M6337 4654 c-4 -4 -7 -16 -7 -26 0 -13 8 -18 31 -18 26 0 30 3 27 23
-3 22 -36 36 -51 21z"/>
<path d="M6300 4550 l0 -50 60 0 60 0 0 50 0 50 -60 0 -60 0 0 -50z m73 -4
c-4 -51 -19 -50 -29 3 -6 29 -4 33 12 29 14 -3 18 -11 17 -32z"/>
<path d="M6350 4560 c0 -5 5 -10 10 -10 6 0 10 5 10 10 0 6 -4 10 -10 10 -5 0
-10 -4 -10 -10z"/>
<path d="M1060 4570 l0 -120 120 0 120 0 0 120 0 120 -120 0 -120 0 0 -120z
m150 80 c11 -11 20 -27 20 -35 0 -8 5 -15 10 -15 6 0 10 -28 10 -65 l0 -65
-70 0 -70 0 0 65 c0 37 4 65 10 65 6 0 10 7 10 15 0 17 35 55 50 55 6 0 19 -9
30 -20z"/>
<path d="M1157 4644 c-4 -4 -7 -16 -7 -26 0 -13 8 -18 31 -18 26 0 30 3 27 23
-3 22 -36 36 -51 21z"/>
<path d="M1120 4540 l0 -50 60 0 60 0 0 50 0 50 -60 0 -60 0 0 -50z m73 -4
c-4 -51 -19 -50 -29 3 -6 29 -4 33 12 29 14 -3 18 -11 17 -32z"/>
<path d="M1170 4550 c0 -5 5 -10 10 -10 6 0 10 5 10 10 0 6 -4 10 -10 10 -5 0
-10 -4 -10 -10z"/>
<path d="M4603 4669 c-81 -40 -123 -112 -123 -207 0 -104 67 -192 167 -217
l48 -12 3 -48 c3 -47 3 -47 -23 -41 l-26 7 17 -33 c9 -17 20 -44 25 -60 l8
-28 -225 0 -224 0 0 -85 0 -85 -255 0 -255 0 0 -197 c-1 -109 -1 -399 0 -645
l0 -447 -606 -1 -606 0 6 25 6 25 -55 -27 c-30 -15 -53 -28 -52 -29 1 -1 26
-14 55 -28 l53 -27 -7 26 -6 26 480 -2 c350 -1 482 -4 486 -13 3 -7 5 -7 5 0
1 7 44 9 131 7 l131 -2 -5 644 -5 645 250 0 249 0 0 -85 0 -85 455 0 455 0 0
85 0 85 360 0 359 0 0 -635 c0 -349 2 -639 5 -644 3 -4 247 -6 542 -3 l537 5
-7 -27 -6 -26 55 27 c30 15 53 28 52 29 -1 1 -26 14 -55 28 l-53 27 7 -26 6
-26 -531 2 -531 1 0 131 c0 73 -2 303 -4 512 -2 209 -4 440 -5 513 l-1 132
-365 0 -365 0 0 85 0 85 -224 0 -225 0 8 28 c5 16 16 43 25 60 l17 33 -26 -7
c-26 -6 -26 -6 -23 41 l3 48 48 12 c60 15 114 59 145 116 20 37 23 55 20 115
-4 84 -33 137 -100 181 -57 38 -163 44 -225 12z m202 -21 c66 -35 106 -105
106 -183 0 -118 -88 -206 -206 -206 -118 0 -206 88 -206 206 0 159 164 257
306 183z m-65 -698 c0 -11 5 -20 10 -20 6 0 10 7 10 15 0 8 7 15 15 15 8 0 15
-7 15 -16 0 -10 6 -14 14 -11 17 7 31 -24 16 -33 -6 -4 -10 -13 -8 -21 2 -9
-7 -15 -27 -16 -46 -3 -60 4 -45 22 10 12 10 15 -1 15 -9 0 -26 -31 -43 -75
-24 -63 -32 -75 -51 -75 -23 0 -23 0 12 92 19 51 39 100 44 110 13 24 39 23
39 -2z"/>
<path d="M4620 4571 c0 -50 0 -50 35 -53 20 -2 35 -7 35 -13 0 -5 -15 -11 -35
-13 -27 -2 -35 -8 -35 -23 0 -10 -7 -19 -15 -19 -8 0 -15 -9 -15 -20 0 -11 -7
-23 -15 -26 -9 -4 -15 -19 -15 -35 0 -26 4 -29 30 -29 27 0 30 3 30 29 0 17
-5 33 -10 36 -15 9 -2 25 21 25 10 0 19 -7 19 -15 0 -8 -4 -15 -10 -15 -5 0
-10 -13 -10 -30 0 -28 3 -30 35 -30 32 0 35 2 35 30 0 20 -5 30 -15 30 -8 0
-15 9 -15 20 0 11 -7 23 -15 26 -34 13 -11 24 50 24 61 0 84 -11 50 -24 -8 -3
-15 -15 -15 -26 0 -11 -7 -20 -15 -20 -10 0 -15 -10 -15 -30 0 -28 3 -30 35
-30 32 0 35 2 35 30 0 17 -4 30 -10 30 -5 0 -10 7 -10 15 0 8 9 15 19 15 23 0
36 -16 21 -25 -5 -3 -10 -19 -10 -36 0 -26 3 -29 30 -29 26 0 30 3 30 29 0 16
-6 31 -15 35 -8 3 -15 15 -15 26 0 11 -7 20 -15 20 -8 0 -15 9 -15 19 0 16 -8
20 -37 23 -21 2 -38 8 -38 13 0 6 17 11 38 13 l37 3 0 50 0 49 -85 0 -85 0 0
-49z m150 -1 l0 -30 -65 0 -65 0 0 30 0 30 65 0 65 0 0 -30z m-170 -200 c0 -5
-4 -10 -10 -10 -5 0 -10 5 -10 10 0 6 5 10 10 10 6 0 10 -4 10 -10z m80 0 c0
-5 -7 -10 -15 -10 -8 0 -15 5 -15 10 0 6 7 10 15 10 8 0 15 -4 15 -10z m80 0
c0 -5 -7 -10 -15 -10 -8 0 -15 5 -15 10 0 6 7 10 15 10 8 0 15 -4 15 -10z m70
0 c0 -5 -4 -10 -10 -10 -5 0 -10 5 -10 10 0 6 5 10 10 10 6 0 10 -4 10 -10z"/>
<path d="M6561 4573 c1 -26 4 -38 6 -26 3 13 13 23 26 25 34 5 29 42 -5 46
-27 3 -28 2 -27 -45z m49 22 c0 -8 -9 -15 -20 -15 -11 0 -20 7 -20 15 0 8 9
15 20 15 11 0 20 -7 20 -15z"/>
<path d="M6773 4575 c0 -27 2 -38 4 -22 2 15 2 37 0 50 -2 12 -4 0 -4 -28z"/>
<path d="M1381 4563 c1 -26 4 -38 6 -26 3 13 13 23 26 25 34 5 29 42 -5 46
-27 3 -28 2 -27 -45z m49 22 c0 -8 -9 -15 -20 -15 -11 0 -20 7 -20 15 0 8 9
15 20 15 11 0 20 -7 20 -15z"/>
<path d="M1593 4565 c0 -27 2 -38 4 -22 2 15 2 37 0 50 -2 12 -4 0 -4 -28z"/>
<path d="M7249 4605 c-7 -7 2 -75 10 -75 4 0 5 18 3 40 -4 41 -5 44 -13 35z"/>
<path d="M2069 4595 c-7 -7 2 -75 10 -75 4 0 5 18 3 40 -4 41 -5 44 -13 35z"/>
<path d="M6717 4593 c-4 -3 -7 -11 -7 -17 0 -6 5 -4 10 4 7 11 12 12 21 3 16
-16 3 -47 -16 -39 -8 3 -15 1 -15 -4 0 -19 39 -10 45 10 9 30 -20 62 -38 43z"/>
<path d="M6830 4585 c-6 -8 -9 -23 -5 -35 6 -20 29 -27 39 -11 3 5 -2 8 -12 7
-11 -1 -17 6 -17 19 0 13 6 20 17 19 10 -1 15 2 12 7 -8 13 -20 11 -34 -6z"/>
<path d="M6924 4588 c-4 -6 0 -16 9 -23 22 -16 21 -22 0 -28 -14 -4 -12 -5 5
-6 25 -1 31 26 7 35 -8 4 -15 11 -15 16 0 6 7 7 16 4 8 -3 12 -2 9 4 -8 13
-22 13 -31 -2z"/>
<path d="M7057 4593 c-4 -3 -7 -11 -7 -17 0 -6 5 -4 10 4 7 11 12 12 21 3 16
-16 3 -47 -16 -39 -8 3 -15 1 -15 -4 0 -19 39 -10 45 10 9 30 -20 62 -38 43z"/>
<path d="M7111 4561 c1 -35 2 -35 8 -7 9 42 29 44 34 4 l5 -33 -2 35 c-1 29
-5 35 -23 36 -20 1 -23 -3 -22 -35z"/>
<path d="M7187 4593 c-4 -3 -7 -17 -7 -30 0 -26 26 -41 42 -25 8 8 5 9 -11 5
-12 -3 -21 -1 -21 6 0 6 9 11 20 11 13 0 20 6 19 18 0 10 -3 12 -6 5 -5 -15
-33 -18 -33 -4 0 5 6 12 13 14 6 3 7 6 1 6 -6 1 -14 -2 -17 -6z"/>
<path d="M1537 4583 c-4 -3 -7 -11 -7 -17 0 -6 5 -4 10 4 7 11 12 12 21 3 16
-16 3 -47 -16 -39 -8 3 -15 1 -15 -4 0 -19 39 -10 45 10 9 30 -20 62 -38 43z"/>
<path d="M1650 4575 c-6 -8 -9 -23 -5 -35 6 -20 29 -27 39 -11 3 5 -2 8 -12 7
-11 -1 -17 6 -17 19 0 13 6 20 17 19 10 -1 15 2 12 7 -8 13 -20 11 -34 -6z"/>
<path d="M1744 4578 c-4 -6 0 -16 9 -23 22 -16 21 -22 0 -28 -14 -4 -12 -5 5
-6 25 -1 31 26 7 35 -8 4 -15 11 -15 16 0 6 7 7 16 4 8 -3 12 -2 9 4 -8 13
-22 13 -31 -2z"/>
<path d="M1877 4583 c-4 -3 -7 -11 -7 -17 0 -6 5 -4 10 4 7 11 12 12 21 3 16
-16 3 -47 -16 -39 -8 3 -15 1 -15 -4 0 -19 39 -10 45 10 9 30 -20 62 -38 43z"/>
<path d="M1931 4551 c1 -35 2 -35 8 -7 9 42 29 44 34 4 l5 -33 -2 35 c-1 29
-5 35 -23 36 -20 1 -23 -3 -22 -35z"/>
<path d="M2007 4583 c-4 -3 -7 -17 -7 -30 0 -26 26 -41 42 -25 8 8 5 9 -11 5
-12 -3 -21 -1 -21 6 0 6 9 11 20 11 13 0 20 6 19 18 0 10 -3 12 -6 5 -5 -15
-33 -18 -33 -4 0 5 6 12 13 14 6 3 7 6 1 6 -6 1 -14 -2 -17 -6z"/>
<path d="M6644 4560 c1 -19 7 -25 24 -26 18 -1 22 4 21 30 -1 28 -2 29 -8 7
-9 -33 -29 -38 -34 -9 -4 21 -4 21 -3 -2z"/>
<path d="M6802 4560 c0 -19 2 -27 5 -17 2 9 2 25 0 35 -3 9 -5 1 -5 -18z"/>
<path d="M6984 4560 c1 -19 7 -25 24 -26 18 -1 22 4 21 30 -1 28 -2 29 -8 7
-9 -33 -29 -38 -34 -9 -4 21 -4 21 -3 -2z"/>
<path d="M1464 4550 c1 -19 7 -25 24 -26 18 -1 22 4 21 30 -1 28 -2 29 -8 7
-9 -33 -29 -38 -34 -9 -4 21 -4 21 -3 -2z"/>
<path d="M1622 4550 c0 -19 2 -27 5 -17 2 9 2 25 0 35 -3 9 -5 1 -5 -18z"/>
<path d="M1804 4550 c1 -19 7 -25 24 -26 18 -1 22 4 21 30 -1 28 -2 29 -8 7
-9 -33 -29 -38 -34 -9 -4 21 -4 21 -3 -2z"/>
<path d="M3554 4557 c-3 -8 -4 -36 -2 -63 3 -41 6 -49 23 -49 18 0 20 7 20 60
0 49 -3 60 -18 63 -9 2 -20 -3 -23 -11z"/>
<path d="M6084 4487 c-3 -8 -4 -36 -2 -63 3 -41 6 -49 23 -49 18 0 20 7 20 60
0 49 -3 60 -18 63 -9 2 -20 -3 -23 -11z"/>
<path d="M5020 4435 c0 -30 5 -55 10 -55 6 0 10 11 10 25 0 18 5 25 20 25 15
0 20 -7 20 -25 0 -14 5 -25 10 -25 6 0 10 25 10 55 0 30 -4 55 -10 55 -5 0
-10 -11 -10 -25 0 -18 -5 -25 -20 -25 -15 0 -20 7 -20 25 0 14 -4 25 -10 25
-5 0 -10 -25 -10 -55z"/>
<path d="M5120 4480 c0 -5 7 -10 15 -10 11 0 15 -12 15 -45 0 -25 5 -45 10
-45 6 0 10 20 10 45 0 33 4 45 15 45 8 0 15 5 15 10 0 6 -18 10 -40 10 -22 0
-40 -4 -40 -10z"/>
<path d="M5210 4480 c0 -5 7 -10 15 -10 11 0 15 -12 15 -45 0 -25 5 -45 10
-45 6 0 10 20 10 45 0 33 4 45 15 45 8 0 15 5 15 10 0 6 -18 10 -40 10 -22 0
-40 -4 -40 -10z"/>
<path d="M5310 4435 c0 -30 5 -55 10 -55 6 0 10 9 10 20 0 15 7 20 24 20 16 0
27 7 31 20 9 28 -11 50 -46 50 -28 0 -29 -1 -29 -55z m56 24 c3 -6 0 -15 -7
-20 -22 -14 -29 -11 -29 11 0 21 24 27 36 9z"/>
<path d="M5412 4473 c-11 -21 -5 -43 12 -43 7 0 21 -7 32 -16 18 -14 17 -15
-20 -9 -36 6 -38 5 -27 -9 24 -29 81 -14 81 20 0 7 -16 18 -36 24 -26 9 -33
15 -25 23 9 9 17 8 32 -1 18 -12 20 -11 17 5 -5 25 -54 30 -66 6z"/>
<path d="M7261 4318 c-1 -19 -7 -27 -23 -30 -15 -2 -24 -11 -26 -25 -2 -15
-12 -23 -30 -26 l-27 -4 28 -2 c22 -1 27 -6 27 -26 0 -20 -5 -25 -25 -25 -14
0 -25 -4 -25 -10 0 -5 11 -10 25 -10 20 0 25 -5 25 -24 0 -19 -6 -26 -27 -29
l-28 -4 28 -2 c22 -1 27 -6 27 -26 0 -20 -5 -25 -25 -25 -14 0 -25 -4 -25 -10
0 -5 11 -10 25 -10 20 0 25 -5 25 -24 0 -19 -6 -26 -27 -29 l-28 -4 27 -2 c19
-1 27 -7 30 -23 2 -15 11 -24 25 -26 15 -2 23 -12 26 -30 l4 -27 2 28 c1 22 6
27 26 27 20 0 25 -5 25 -25 0 -14 5 -25 10 -25 6 0 10 11 10 25 0 20 5 25 24
25 19 0 26 -6 29 -27 l4 -28 2 28 c1 22 6 27 26 27 20 0 25 -5 25 -25 0 -14 5
-25 10 -25 6 0 10 11 10 25 0 20 5 25 24 25 19 0 26 -6 29 -27 l4 -28 2 27 c1
19 7 27 24 30 14 2 23 11 25 25 2 15 12 23 30 26 l27 4 -27 2 c-23 1 -28 6
-28 26 0 20 5 25 25 25 14 0 25 5 25 10 0 6 -11 10 -25 10 -20 0 -25 5 -25 24
0 19 6 26 28 29 l27 4 -27 2 c-23 1 -28 6 -28 26 0 20 5 25 25 25 14 0 25 5
25 10 0 6 -11 10 -25 10 -20 0 -25 5 -25 24 0 19 6 26 28 29 l27 4 -27 2 c-19
1 -27 7 -30 24 -2 14 -11 23 -25 25 -15 2 -23 12 -26 30 l-4 27 -2 -27 c-1
-23 -6 -28 -26 -28 -20 0 -25 5 -25 25 0 14 -4 25 -10 25 -5 0 -10 -11 -10
-25 0 -20 -5 -25 -24 -25 -19 0 -26 6 -29 28 l-4 27 -2 -27 c-1 -23 -6 -28
-26 -28 -20 0 -25 5 -25 25 0 14 -4 25 -10 25 -5 0 -10 -11 -10 -25 0 -20 -5
-25 -24 -25 -19 0 -26 6 -29 28 l-4 27 -2 -27z m299 -213 l0 -165 -165 0 -165
0 0 165 0 165 165 0 165 0 0 -165z"/>
<path d="M7349 4103 c4 -52 7 -49 13 10 2 22 0 37 -7 37 -6 0 -9 -18 -6 -47z"/>
<path d="M7442 4130 c-16 -26 -15 -30 3 -30 21 0 19 -26 -2 -40 -17 -11 -17
-11 0 -6 10 3 21 6 23 6 12 0 2 41 -11 47 -14 5 -14 8 1 24 9 11 13 19 8 19
-5 0 -15 -9 -22 -20z"/>
<path d="M2170 4321 c-50 -16 -88 -41 -120 -77 -45 -52 -60 -93 -60 -164 0
-71 15 -112 60 -164 51 -58 103 -80 185 -80 82 0 134 22 185 80 45 52 60 93
60 164 0 33 -6 75 -14 94 -20 47 -73 104 -119 128 -44 22 -137 32 -177 19z
m167 -40 c79 -40 123 -112 123 -201 0 -129 -96 -224 -225 -224 -129 0 -225 95
-225 224 0 170 177 279 327 201z"/>
<path d="M2100 4190 c0 -27 4 -50 8 -50 5 0 19 11 32 25 l23 25 -23 25 c-13
14 -27 25 -32 25 -4 0 -8 -22 -8 -50z"/>
<path d="M2180 4190 c0 -5 16 -10 35 -10 l35 0 0 -50 0 -50 -35 0 c-19 0 -35
-4 -35 -10 0 -5 16 -10 35 -10 l35 0 0 -50 0 -50 -35 0 c-19 0 -35 -4 -35 -10
0 -5 20 -10 45 -10 l44 0 3 58 3 57 43 3 c36 3 42 0 42 -16 0 -32 12 -33 42
-5 35 33 35 46 2 72 -29 23 -44 20 -44 -10 0 -17 -6 -20 -42 -17 l-43 3 -3 58
-3 57 -44 0 c-25 0 -45 -4 -45 -10z m212 -132 c-9 -9 -12 -7 -12 12 0 19 3 21
12 12 9 -9 9 -15 0 -24z"/>
<path d="M2100 4070 c0 -27 4 -50 8 -50 5 0 19 11 32 25 l23 25 -23 25 c-13
14 -27 25 -32 25 -4 0 -8 -22 -8 -50z"/>
<path d="M2100 3960 c0 -27 4 -50 8 -50 5 0 19 11 32 25 l23 25 -23 25 c-13
14 -27 25 -32 25 -4 0 -8 -22 -8 -50z"/>
<path d="M3554 4317 c-3 -8 -4 -36 -2 -63 3 -41 6 -49 23 -49 18 0 20 7 20 60
0 49 -3 60 -18 63 -9 2 -20 -3 -23 -11z"/>
<path d="M6084 4247 c-3 -8 -4 -36 -2 -63 3 -41 6 -49 23 -49 18 0 20 7 20 60
0 49 -3 60 -18 63 -9 2 -20 -3 -23 -11z"/>
<path d="M3554 4077 c-3 -8 -4 -36 -2 -63 3 -41 6 -49 23 -49 18 0 20 7 20 60
0 49 -3 60 -18 63 -9 2 -20 -3 -23 -11z"/>
<path d="M6084 4007 c-3 -8 -4 -36 -2 -63 3 -41 6 -49 23 -49 18 0 20 7 20 60
0 49 -3 60 -18 63 -9 2 -20 -3 -23 -11z"/>
<path d="M3554 3837 c-3 -8 -4 -36 -2 -63 3 -41 6 -49 23 -49 18 0 20 7 20 60
0 49 -3 60 -18 63 -9 2 -20 -3 -23 -11z"/>
<path d="M6084 3767 c-3 -8 -4 -36 -2 -63 3 -41 6 -49 23 -49 18 0 20 7 20 60
0 49 -3 60 -18 63 -9 2 -20 -3 -23 -11z"/>
<path d="M6730 3660 l0 -51 33 3 c31 3 32 5 32 48 0 43 -1 45 -32 48 l-33 3 0
-51z m50 25 c0 -8 -9 -15 -20 -15 -11 0 -20 7 -20 15 0 8 9 15 20 15 11 0 20
-7 20 -15z m6 -36 c7 -12 -12 -29 -33 -29 -7 0 -13 9 -13 20 0 22 34 28 46 9z"/>
<path d="M6968 3698 c-6 -17 2 -88 11 -88 7 0 7 88 -1 95 -3 3 -8 0 -10 -7z"/>
<path d="M7230 3660 l0 -50 43 2 c36 1 38 2 10 5 -43 6 -47 40 -5 46 l27 4
-27 2 c-40 2 -36 29 5 34 28 3 26 4 -10 5 l-43 2 0 -50z"/>
<path d="M7332 3698 c-27 -27 -5 -88 32 -88 24 0 54 26 42 37 -3 4 -12 -2 -20
-12 -19 -27 -46 -12 -46 25 0 36 23 49 52 31 16 -10 19 -10 16 1 -6 17 -60 22
-76 6z"/>
<path d="M7437 3703 c-4 -3 -7 -11 -7 -17 0 -6 5 -5 12 2 7 7 16 12 20 12 16
0 7 -27 -17 -50 -34 -32 -31 -40 13 -39 31 2 33 3 8 6 l-28 5 27 28 c17 17 25
35 22 44 -6 16 -38 22 -50 9z"/>
<path d="M7553 3660 c0 -30 2 -43 4 -27 2 15 2 39 0 55 -2 15 -4 2 -4 -28z"/>
<path d="M7729 3695 c-3 -2 -3 -22 -1 -44 3 -28 9 -41 19 -41 13 0 13 3 3 15
-7 8 -10 25 -6 39 5 22 -4 42 -15 31z"/>
<path d="M6827 3683 c-4 -3 -7 -11 -7 -17 0 -6 5 -5 12 2 14 14 28 16 28 3 0
-5 -9 -13 -20 -16 -11 -3 -20 -15 -20 -25 0 -17 7 -19 61 -19 76 1 95 29 34
52 -5 3 -7 8 -3 12 4 4 14 2 23 -5 11 -9 15 -9 15 -1 0 18 -29 25 -45 11 -17
-14 -3 -40 21 -40 8 0 14 -4 14 -10 0 -5 -13 -8 -30 -7 -20 1 -30 7 -30 19 0
40 -31 64 -53 41z m33 -48 c0 -8 -7 -15 -15 -15 -26 0 -18 20 13 29 1 1 2 -6
2 -14z"/>
<path d="M7013 3650 c0 -25 2 -35 4 -22 2 12 2 32 0 45 -2 12 -4 2 -4 -23z"/>
<path d="M7040 3675 c-20 -24 -4 -65 25 -65 18 0 26 7 31 25 7 27 -9 55 -31
55 -7 0 -18 -7 -25 -15z m43 -35 c-7 -28 -33 -25 -33 3 0 13 3 27 7 30 11 12
31 -13 26 -33z"/>
<path d="M7110 3651 c0 -49 17 -55 22 -8 4 41 21 38 30 -5 6 -31 6 -31 5 7 -2
36 -5 40 -29 43 -27 3 -28 1 -28 -37z"/>
<path d="M7581 3646 l0 -41 12 33 c15 43 30 42 39 0 6 -31 6 -31 5 7 -2 36 -5
40 -29 41 -26 1 -28 -2 -27 -40z"/>
<path d="M7664 3676 c-7 -19 3 -36 22 -36 8 0 14 -5 14 -11 0 -6 -9 -9 -20 -6
-11 3 -20 1 -20 -4 0 -5 11 -9 25 -9 31 0 35 35 5 45 -11 4 -18 11 -14 16 3 6
12 5 22 -3 13 -11 14 -11 10 2 -7 21 -37 25 -44 6z"/>
<path d="M7777 3683 c-4 -3 -7 -11 -7 -17 0 -6 5 -5 12 2 14 14 28 16 28 3 0
-5 -9 -13 -20 -16 -11 -3 -20 -15 -20 -26 0 -15 7 -19 35 -19 23 0 33 4 31 13
-3 6 -7 24 -10 40 -6 26 -33 37 -49 20z m33 -48 c0 -8 -7 -15 -15 -15 -26 0
-18 20 13 29 1 1 2 -6 2 -14z"/>
<path d="M7851 3645 c2 -40 2 -40 8 -7 8 43 25 46 29 5 4 -40 22 -44 22 -5 0
37 -11 51 -38 49 -19 -1 -22 -7 -21 -42z"/>
<path d="M7931 3676 c-21 -25 -10 -61 18 -61 13 0 26 7 29 15 4 12 2 13 -9 3
-7 -7 -16 -13 -20 -13 -14 0 -19 33 -8 46 9 12 15 12 27 2 13 -11 14 -10 10 2
-7 21 -32 24 -47 6z"/>
<path d="M8000 3676 c-20 -26 -8 -61 23 -64 15 -2 27 2 27 8 0 7 -8 9 -20 5
-11 -4 -20 -2 -20 4 0 6 9 11 19 11 26 0 36 17 21 35 -16 19 -34 19 -50 1z
m35 -6 c3 -5 -1 -10 -10 -10 -9 0 -13 5 -10 10 3 6 8 10 10 10 2 0 7 -4 10
-10z"/>
<path d="M1811 3628 c2 -52 2 -52 8 -13 l6 40 25 -37 c14 -21 28 -38 33 -38 4
0 6 24 6 53 -2 51 -2 51 -8 12 l-6 -40 -23 38 c-13 20 -28 37 -33 37 -5 0 -8
-24 -8 -52z"/>
<path d="M1930 3655 c-6 -14 -14 -36 -20 -50 -5 -14 -6 -25 -1 -25 5 0 11 7
15 15 3 8 15 15 26 15 11 0 20 -7 20 -15 0 -8 5 -15 10 -15 13 0 13 -2 -6 53
-18 53 -30 59 -44 22z m30 -27 c0 -5 -4 -8 -10 -8 -5 0 -10 10 -10 23 0 18 2
19 10 7 5 -8 10 -18 10 -22z"/>
<path d="M1997 3673 c18 -4 23 -12 26 -51 l3 -47 2 47 c2 40 5 47 25 51 12 2
0 4 -28 4 -27 0 -40 -2 -28 -4z"/>
<path d="M2120 3656 c-6 -17 -6 -35 0 -51 9 -22 15 -26 50 -23 37 2 40 4 40
30 0 23 -4 28 -25 28 -14 0 -25 -4 -25 -10 0 -5 7 -10 15 -10 20 0 19 -19 0
-26 -21 -9 -45 14 -45 43 0 29 26 41 52 24 16 -10 19 -10 16 1 -3 7 -19 14
-36 16 -27 3 -34 -1 -42 -22z"/>
<path d="M2308 3668 c-6 -17 2 -88 11 -88 7 0 6 89 -2 96 -2 3 -7 -1 -9 -8z"/>
<path d="M2237 3653 c-13 -13 -7 -25 7 -14 8 7 17 8 20 3 3 -5 -6 -14 -20 -21
-33 -15 -26 -35 15 -39 30 -3 31 -2 26 25 -4 15 -8 34 -11 41 -4 13 -26 16
-37 5z m25 -55 c-6 -6 -15 -8 -19 -4 -4 4 -1 11 7 16 19 12 27 3 12 -12z"/>
<path d="M2352 3651 c-8 -4 -12 -21 -10 -37 2 -23 8 -29 28 -29 22 0 25 4 25
35 0 36 -17 48 -43 31z m33 -11 c3 -5 -1 -10 -10 -10 -9 0 -13 5 -10 10 3 6 8
10 10 10 2 0 7 -4 10 -10z m-3 -42 c-9 -9 -15 -9 -24 0 -9 9 -7 12 12 12 19 0
21 -3 12 -12z"/>
<path d="M2421 3645 c-1 -28 10 -65 19 -65 4 0 11 10 15 23 l8 22 4 -22 c6
-32 19 -28 32 8 14 40 14 52 1 44 -5 -3 -10 -16 -10 -28 -1 -19 -3 -18 -14 8
l-14 30 -10 -25 -10 -25 -10 25 c-9 21 -11 22 -11 5z"/>
<path d="M2527 3654 c-15 -15 -6 -24 12 -14 12 6 22 6 25 1 3 -5 -5 -12 -19
-15 -16 -4 -25 -13 -25 -26 0 -16 7 -19 33 -18 33 1 33 2 28 37 -5 26 -12 37
-27 39 -11 2 -23 0 -27 -4z m33 -54 c0 -5 -4 -10 -9 -10 -6 0 -13 5 -16 10 -3
6 1 10 9 10 9 0 16 -4 16 -10z"/>
<path d="M2590 3655 c0 -3 7 -22 15 -42 12 -29 13 -39 3 -51 -11 -12 -10 -14
1 -11 7 3 22 27 32 54 22 58 22 55 10 55 -5 0 -12 -12 -16 -27 l-8 -28 -10 28
c-9 23 -27 38 -27 22z"/>
<path d="M3554 3597 c-3 -8 -4 -36 -2 -63 3 -41 6 -49 23 -49 18 0 20 7 20 60
0 49 -3 60 -18 63 -9 2 -20 -3 -23 -11z"/>
<path d="M6084 3527 c-3 -8 -4 -36 -2 -63 3 -41 6 -49 23 -49 18 0 20 7 20 60
0 49 -3 60 -18 63 -9 2 -20 -3 -23 -11z"/>
<path d="M3554 3355 c-13 -34 4 -46 58 -43 45 3 53 6 53 23 0 16 -7 20 -32 20
-17 0 -35 3 -39 8 -12 12 -34 8 -40 -8z"/>
<path d="M3783 3343 c-10 -24 12 -34 68 -31 46 3 54 6 54 23 0 18 -7 20 -58
21 -43 1 -60 -2 -64 -13z"/>
<path d="M4031 3351 c-8 -5 -11 -16 -8 -25 5 -14 18 -16 64 -14 50 3 58 6 58
23 0 17 -8 20 -50 23 -27 1 -56 -2 -64 -7z"/>
<path d="M4271 3351 c-8 -5 -11 -16 -8 -25 5 -14 18 -16 64 -14 50 3 58 6 58
23 0 17 -8 20 -50 23 -27 1 -56 -2 -64 -7z"/>
<path d="M4511 3351 c-8 -5 -11 -16 -8 -25 5 -14 18 -16 64 -14 50 3 58 6 58
23 0 17 -8 20 -50 23 -27 1 -56 -2 -64 -7z"/>
<path d="M4751 3351 c-8 -5 -11 -16 -8 -25 5 -14 18 -16 64 -14 50 3 58 6 58
23 0 17 -8 20 -50 23 -27 1 -56 -2 -64 -7z"/>
<path d="M4991 3351 c-8 -5 -11 -16 -8 -25 5 -14 18 -16 64 -14 50 3 58 6 58
23 0 17 -8 20 -50 23 -27 1 -56 -2 -64 -7z"/>
<path d="M5231 3351 c-8 -5 -11 -16 -8 -25 5 -14 18 -16 64 -14 50 3 58 6 58
23 0 17 -8 20 -50 23 -27 1 -56 -2 -64 -7z"/>
<path d="M5471 3351 c-8 -5 -11 -16 -8 -25 5 -14 18 -16 64 -14 50 3 58 6 58
23 0 17 -8 20 -50 23 -27 1 -56 -2 -64 -7z"/>
<path d="M5711 3351 c-8 -5 -11 -16 -8 -25 5 -14 18 -16 64 -14 50 3 58 6 58
23 0 17 -8 20 -50 23 -27 1 -56 -2 -64 -7z"/>
<path d="M5944 3345 c-11 -26 10 -36 67 -33 46 3 54 6 54 23 0 17 -8 20 -58
23 -45 2 -59 0 -63 -13z"/>
<path d="M6260 3220 l0 -120 120 0 120 0 0 120 0 120 -120 0 -120 0 0 -120z
m150 80 c11 -11 20 -27 20 -35 0 -8 5 -15 10 -15 6 0 10 -28 10 -65 l0 -65
-70 0 -70 0 0 65 c0 37 4 65 10 65 6 0 10 7 10 15 0 17 35 55 50 55 6 0 19 -9
30 -20z"/>
<path d="M6357 3294 c-4 -4 -7 -16 -7 -26 0 -13 8 -18 31 -18 26 0 30 3 27 23
-3 22 -36 36 -51 21z"/>
<path d="M6320 3190 l0 -50 60 0 60 0 0 50 0 50 -60 0 -60 0 0 -50z m73 -4
c-4 -51 -19 -50 -29 3 -6 29 -4 33 12 29 14 -3 18 -11 17 -32z"/>
<path d="M6370 3200 c0 -5 5 -10 10 -10 6 0 10 5 10 10 0 6 -4 10 -10 10 -5 0
-10 -4 -10 -10z"/>
<path d="M1060 3210 l0 -120 120 0 120 0 0 120 0 120 -120 0 -120 0 0 -120z
m150 80 c11 -11 20 -27 20 -35 0 -8 5 -15 10 -15 6 0 10 -28 10 -65 l0 -65
-70 0 -70 0 0 65 c0 37 4 65 10 65 6 0 10 7 10 15 0 17 35 55 50 55 6 0 19 -9
30 -20z"/>
<path d="M1157 3284 c-4 -4 -7 -16 -7 -26 0 -13 8 -18 31 -18 26 0 30 3 27 23
-3 22 -36 36 -51 21z"/>
<path d="M1120 3180 l0 -50 60 0 60 0 0 50 0 50 -60 0 -60 0 0 -50z m73 -4
c-4 -51 -19 -50 -29 3 -6 29 -4 33 12 29 14 -3 18 -11 17 -32z"/>
<path d="M1170 3190 c0 -5 5 -10 10 -10 6 0 10 5 10 10 0 6 -4 10 -10 10 -5 0
-10 -4 -10 -10z"/>
<path d="M6581 3213 c1 -27 4 -38 6 -26 3 13 13 23 26 25 12 2 22 11 23 21 1
12 1 13 -3 2 -6 -19 -43 -20 -43 -1 0 8 8 17 18 19 13 4 11 5 -5 6 -21 1 -23
-3 -22 -46z"/>
<path d="M7113 3215 c0 -27 2 -38 4 -22 2 15 2 37 0 50 -2 12 -4 0 -4 -28z"/>
<path d="M1381 3203 c1 -27 4 -38 6 -26 3 13 13 23 26 25 12 2 22 11 23 21 1
12 1 13 -3 2 -6 -19 -43 -20 -43 -1 0 8 8 17 18 19 13 4 11 5 -5 6 -21 1 -23
-3 -22 -46z"/>
<path d="M1913 3205 c0 -27 2 -38 4 -22 2 15 2 37 0 50 -2 12 -4 0 -4 -28z"/>
<path d="M6850 3229 c0 -5 5 -7 10 -4 6 3 10 8 10 11 0 2 -4 4 -10 4 -5 0 -10
-5 -10 -11z"/>
<path d="M6918 3228 c12 -15 10 -17 -15 -21 -27 -4 -27 -4 5 -6 36 -1 41 10
15 30 -16 13 -17 12 -5 -3z"/>
<path d="M7142 3226 c7 -8 15 -12 17 -11 5 6 -10 25 -20 25 -5 0 -4 -6 3 -14z"/>
<path d="M7278 3228 c12 -15 10 -17 -15 -21 -27 -4 -27 -4 5 -6 36 -1 41 10
15 30 -16 13 -17 12 -5 -3z"/>
<path d="M1650 3219 c0 -5 5 -7 10 -4 6 3 10 8 10 11 0 2 -4 4 -10 4 -5 0 -10
-5 -10 -11z"/>
<path d="M1718 3218 c12 -15 10 -17 -15 -21 -27 -4 -27 -4 5 -6 36 -1 41 10
15 30 -16 13 -17 12 -5 -3z"/>
<path d="M1942 3216 c7 -8 15 -12 17 -11 5 6 -10 25 -20 25 -5 0 -4 -6 3 -14z"/>
<path d="M2078 3218 c12 -15 10 -17 -15 -21 -27 -4 -27 -4 5 -6 36 -1 41 10
15 30 -16 13 -17 12 -5 -3z"/>
<path d="M6660 3200 c0 -16 2 -30 4 -30 2 0 6 14 8 30 3 17 1 30 -4 30 -4 0
-8 -13 -8 -30z"/>
<path d="M6702 3200 c0 -19 2 -27 5 -17 2 9 2 25 0 35 -3 9 -5 1 -5 -18z"/>
<path d="M7182 3200 c0 -19 2 -27 5 -17 2 9 2 25 0 35 -3 9 -5 1 -5 -18z"/>
<path d="M1460 3190 c0 -16 2 -30 4 -30 2 0 6 14 8 30 3 17 1 30 -4 30 -4 0
-8 -13 -8 -30z"/>
<path d="M1502 3190 c0 -19 2 -27 5 -17 2 9 2 25 0 35 -3 9 -5 1 -5 -18z"/>
<path d="M1982 3190 c0 -19 2 -27 5 -17 2 9 2 25 0 35 -3 9 -5 1 -5 -18z"/>
<path d="M7222 3195 c0 -16 2 -22 5 -12 2 9 2 23 0 30 -3 6 -5 -1 -5 -18z"/>
<path d="M2022 3185 c0 -16 2 -22 5 -12 2 9 2 23 0 30 -3 6 -5 -1 -5 -18z"/>
<path d="M6808 3203 c7 -3 16 -2 19 1 4 3 -2 6 -13 5 -11 0 -14 -3 -6 -6z"/>
<path d="M7010 3203 c15 -7 12 -21 -5 -26 -11 -4 -10 -4 2 -3 21 2 25 28 5 32
-7 1 -8 0 -2 -3z"/>
<path d="M1608 3193 c7 -3 16 -2 19 1 4 3 -2 6 -13 5 -11 0 -14 -3 -6 -6z"/>
<path d="M1810 3193 c15 -7 12 -21 -5 -26 -11 -4 -10 -4 2 -3 21 2 25 28 5 32
-7 1 -8 0 -2 -3z"/>
<path d="M6747 3193 c-4 -3 -7 -11 -7 -17 0 -6 5 -5 12 2 6 6 9 14 7 17 -3 3
-9 2 -12 -2z"/>
<path d="M7142 3184 c-7 -8 -8 -14 -3 -14 10 0 25 19 20 25 -2 1 -10 -3 -17
-11z"/>
<path d="M1547 3183 c-4 -3 -7 -11 -7 -17 0 -6 5 -5 12 2 6 6 9 14 7 17 -3 3
-9 2 -12 -2z"/>
<path d="M1942 3174 c-7 -8 -8 -14 -3 -14 10 0 25 19 20 25 -2 1 -10 -3 -17
-11z"/>
<path d="M6805 3180 c-17 -8 -17 -9 7 -7 15 1 24 5 22 9 -3 4 -6 8 -7 7 -1 0
-11 -4 -22 -9z"/>
<path d="M6897 3179 c7 -7 15 -10 18 -7 3 3 -2 9 -12 12 -14 6 -15 5 -6 -5z"/>
<path d="M7050 3178 c0 -4 6 -8 14 -8 8 0 17 4 20 8 2 4 -4 8 -15 8 -10 0 -19
-4 -19 -8z"/>
<path d="M7257 3179 c7 -7 15 -10 18 -7 3 3 -2 9 -12 12 -14 6 -15 5 -6 -5z"/>
<path d="M1605 3170 c-17 -8 -17 -9 7 -7 15 1 24 5 22 9 -3 4 -6 8 -7 7 -1 0
-11 -4 -22 -9z"/>
<path d="M1697 3169 c7 -7 15 -10 18 -7 3 3 -2 9 -12 12 -14 6 -15 5 -6 -5z"/>
<path d="M1850 3168 c0 -4 6 -8 14 -8 8 0 17 4 20 8 2 4 -4 8 -15 8 -10 0 -19
-4 -19 -8z"/>
<path d="M2057 3169 c7 -7 15 -10 18 -7 3 3 -2 9 -12 12 -14 6 -15 5 -6 -5z"/>
<path d="M1121 2898 c1 -16 3 -18 6 -6 2 9 16 19 31 21 24 4 24 4 -5 6 -28 1
-33 -2 -32 -21z"/>
<path d="M1263 2913 c9 -2 23 -2 30 0 6 3 -1 5 -18 5 -16 0 -22 -2 -12 -5z"/>
<path d="M1383 2913 c9 -2 23 -2 30 0 6 3 -1 5 -18 5 -16 0 -22 -2 -12 -5z"/>
<path d="M1503 2913 c9 -2 23 -2 30 0 6 3 -1 5 -18 5 -16 0 -22 -2 -12 -5z"/>
<path d="M1623 2913 c9 -2 23 -2 30 0 6 3 -1 5 -18 5 -16 0 -22 -2 -12 -5z"/>
<path d="M1743 2913 c9 -2 23 -2 30 0 6 3 -1 5 -18 5 -16 0 -22 -2 -12 -5z"/>
<path d="M1863 2913 c9 -2 23 -2 30 0 6 3 -1 5 -18 5 -16 0 -22 -2 -12 -5z"/>
<path d="M1983 2913 c9 -2 23 -2 30 0 6 3 -1 5 -18 5 -16 0 -22 -2 -12 -5z"/>
<path d="M2103 2913 c9 -2 23 -2 30 0 6 3 -1 5 -18 5 -16 0 -22 -2 -12 -5z"/>
<path d="M2223 2913 c9 -2 23 -2 30 0 6 3 -1 5 -18 5 -16 0 -22 -2 -12 -5z"/>
<path d="M2343 2913 c9 -2 23 -2 30 0 6 3 -1 5 -18 5 -16 0 -22 -2 -12 -5z"/>
<path d="M2463 2913 c9 -2 23 -2 30 0 6 3 -1 5 -18 5 -16 0 -22 -2 -12 -5z"/>
<path d="M2583 2913 c9 -2 23 -2 30 0 6 3 -1 5 -18 5 -16 0 -22 -2 -12 -5z"/>
<path d="M2703 2913 c9 -2 23 -2 30 0 6 3 -1 5 -18 5 -16 0 -22 -2 -12 -5z"/>
<path d="M2823 2913 c9 -2 23 -2 30 0 6 3 -1 5 -18 5 -16 0 -22 -2 -12 -5z"/>
<path d="M2943 2913 c9 -2 23 -2 30 0 6 3 -1 5 -18 5 -16 0 -22 -2 -12 -5z"/>
<path d="M3063 2913 c9 -2 23 -2 30 0 6 3 -1 5 -18 5 -16 0 -22 -2 -12 -5z"/>
<path d="M3183 2913 c9 -2 23 -2 30 0 6 3 -1 5 -18 5 -16 0 -22 -2 -12 -5z"/>
<path d="M3303 2913 c9 -2 23 -2 30 0 6 3 -1 5 -18 5 -16 0 -22 -2 -12 -5z"/>
<path d="M3423 2913 c9 -2 23 -2 30 0 6 3 -1 5 -18 5 -16 0 -22 -2 -12 -5z"/>
<path d="M3543 2913 c9 -2 23 -2 30 0 6 3 -1 5 -18 5 -16 0 -22 -2 -12 -5z"/>
<path d="M3663 2913 c9 -2 23 -2 30 0 6 3 -1 5 -18 5 -16 0 -22 -2 -12 -5z"/>
<path d="M3783 2913 c9 -2 23 -2 30 0 6 3 -1 5 -18 5 -16 0 -22 -2 -12 -5z"/>
<path d="M3903 2913 c9 -2 23 -2 30 0 6 3 -1 5 -18 5 -16 0 -22 -2 -12 -5z"/>
<path d="M4023 2913 c9 -2 23 -2 30 0 6 3 -1 5 -18 5 -16 0 -22 -2 -12 -5z"/>
<path d="M4143 2913 c9 -2 23 -2 30 0 6 3 -1 5 -18 5 -16 0 -22 -2 -12 -5z"/>
<path d="M4263 2913 c9 -2 23 -2 30 0 6 3 -1 5 -18 5 -16 0 -22 -2 -12 -5z"/>
<path d="M4383 2913 c9 -2 23 -2 30 0 6 3 -1 5 -18 5 -16 0 -22 -2 -12 -5z"/>
<path d="M4503 2913 c9 -2 23 -2 30 0 6 3 -1 5 -18 5 -16 0 -22 -2 -12 -5z"/>
<path d="M4633 2912 l27 -3 0 -120 0 -119 120 0 120 0 0 123 0 122 -147 0
c-82 0 -136 -1 -120 -3z m161 -50 c-1 -7 -2 -24 -2 -39 -1 -16 -6 -23 -11 -17
-12 13 -22 60 -14 68 10 9 28 1 27 -12z m-37 -79 c-7 -11 -67 -4 -67 7 0 11
52 18 64 9 4 -4 6 -11 3 -16z m113 7 c0 -11 -60 -18 -66 -8 -10 16 5 25 36 20
16 -2 30 -8 30 -12z m-77 -47 c6 -31 -7 -53 -22 -37 -11 10 -3 64 9 64 4 0 10
-12 13 -27z"/>
<path d="M4983 2913 c9 -2 23 -2 30 0 6 3 -1 5 -18 5 -16 0 -22 -2 -12 -5z"/>
<path d="M5103 2913 c9 -2 23 -2 30 0 6 3 -1 5 -18 5 -16 0 -22 -2 -12 -5z"/>
<path d="M5223 2913 c9 -2 23 -2 30 0 6 3 -1 5 -18 5 -16 0 -22 -2 -12 -5z"/>
<path d="M5343 2913 c9 -2 23 -2 30 0 6 3 -1 5 -18 5 -16 0 -22 -2 -12 -5z"/>
<path d="M5463 2913 c9 -2 23 -2 30 0 6 3 -1 5 -18 5 -16 0 -22 -2 -12 -5z"/>
<path d="M5583 2913 c9 -2 23 -2 30 0 6 3 -1 5 -18 5 -16 0 -22 -2 -12 -5z"/>
<path d="M5703 2913 c9 -2 23 -2 30 0 6 3 -1 5 -18 5 -16 0 -22 -2 -12 -5z"/>
<path d="M5823 2913 c9 -2 23 -2 30 0 6 3 -1 5 -18 5 -16 0 -22 -2 -12 -5z"/>
<path d="M5943 2913 c9 -2 23 -2 30 0 6 3 -1 5 -18 5 -16 0 -22 -2 -12 -5z"/>
<path d="M6063 2913 c9 -2 23 -2 30 0 6 3 -1 5 -18 5 -16 0 -22 -2 -12 -5z"/>
<path d="M6183 2913 c9 -2 23 -2 30 0 6 3 -1 5 -18 5 -16 0 -22 -2 -12 -5z"/>
<path d="M6303 2913 c9 -2 23 -2 30 0 6 3 -1 5 -18 5 -16 0 -22 -2 -12 -5z"/>
<path d="M6423 2913 c9 -2 23 -2 30 0 6 3 -1 5 -18 5 -16 0 -22 -2 -12 -5z"/>
<path d="M6543 2913 c9 -2 23 -2 30 0 6 3 -1 5 -18 5 -16 0 -22 -2 -12 -5z"/>
<path d="M6663 2913 c9 -2 23 -2 30 0 6 3 -1 5 -18 5 -16 0 -22 -2 -12 -5z"/>
<path d="M6783 2913 c9 -2 23 -2 30 0 6 3 -1 5 -18 5 -16 0 -22 -2 -12 -5z"/>
<path d="M6903 2913 c9 -2 23 -2 30 0 6 3 -1 5 -18 5 -16 0 -22 -2 -12 -5z"/>
<path d="M7023 2913 c9 -2 23 -2 30 0 6 3 -1 5 -18 5 -16 0 -22 -2 -12 -5z"/>
<path d="M7143 2913 c9 -2 23 -2 30 0 6 3 -1 5 -18 5 -16 0 -22 -2 -12 -5z"/>
<path d="M7263 2913 c9 -2 23 -2 30 0 6 3 -1 5 -18 5 -16 0 -22 -2 -12 -5z"/>
<path d="M7383 2913 c9 -2 23 -2 30 0 6 3 -1 5 -18 5 -16 0 -22 -2 -12 -5z"/>
<path d="M7503 2913 c9 -2 23 -2 30 0 6 3 -1 5 -18 5 -16 0 -22 -2 -12 -5z"/>
<path d="M7623 2913 c9 -2 23 -2 30 0 6 3 -1 5 -18 5 -16 0 -22 -2 -12 -5z"/>
<path d="M7743 2913 c9 -2 23 -2 30 0 6 3 -1 5 -18 5 -16 0 -22 -2 -12 -5z"/>
<path d="M7863 2913 c9 -2 23 -2 30 0 6 3 -1 5 -18 5 -16 0 -22 -2 -12 -5z"/>
<path d="M7983 2913 c9 -2 23 -2 30 0 6 3 -1 5 -18 5 -16 0 -22 -2 -12 -5z"/>
<path d="M8103 2913 c9 -2 23 -2 30 0 6 3 -1 5 -18 5 -16 0 -22 -2 -12 -5z"/>
<path d="M8223 2913 c9 -2 23 -2 30 0 6 3 -1 5 -18 5 -16 0 -22 -2 -12 -5z"/>
<path d="M8343 2913 c9 -2 23 -2 30 0 6 3 -1 5 -18 5 -16 0 -22 -2 -12 -5z"/>
<path d="M8432 2875 c0 -16 2 -22 5 -12 2 9 2 23 0 30 -3 6 -5 -1 -5 -18z"/>
<path d="M1122 2785 c0 -16 2 -22 5 -12 2 9 2 23 0 30 -3 6 -5 -1 -5 -18z"/>
<path d="M2051 2778 c-1 -19 -7 -27 -23 -30 -15 -2 -24 -11 -26 -25 -2 -15
-12 -23 -30 -26 l-27 -4 28 -2 c22 -1 27 -6 27 -26 0 -20 -5 -25 -25 -25 -14
0 -25 -4 -25 -10 0 -5 11 -10 25 -10 20 0 25 -5 25 -24 0 -19 -6 -26 -27 -29
l-28 -4 28 -2 c22 -1 27 -6 27 -26 0 -20 -5 -25 -25 -25 -14 0 -25 -4 -25 -10
0 -5 11 -10 25 -10 20 0 25 -5 25 -24 0 -19 -6 -26 -27 -29 l-28 -4 27 -2 c19
-1 27 -7 30 -23 2 -15 11 -24 25 -26 15 -2 23 -12 26 -30 l4 -27 2 28 c1 22 6
27 26 27 20 0 25 -5 25 -25 0 -14 5 -25 10 -25 6 0 10 11 10 25 0 20 5 25 24
25 19 0 26 -6 29 -27 l4 -28 2 28 c1 22 6 27 26 27 20 0 25 -5 25 -25 0 -14 5
-25 10 -25 6 0 10 11 10 25 0 20 5 25 24 25 19 0 26 -6 29 -27 l4 -28 2 27 c1
19 7 27 24 30 14 2 23 11 25 25 2 15 12 23 30 26 l27 4 -27 2 c-23 1 -28 6
-28 26 0 20 5 25 25 25 14 0 25 5 25 10 0 6 -11 10 -25 10 -20 0 -25 5 -25 24
0 19 6 26 28 29 l27 4 -27 2 c-23 1 -28 6 -28 26 0 20 5 25 25 25 14 0 25 5
25 10 0 6 -11 10 -25 10 -20 0 -25 5 -25 24 0 19 6 26 28 29 l27 4 -27 2 c-19
1 -27 7 -30 24 -2 14 -11 23 -25 25 -15 2 -23 12 -26 30 l-4 27 -2 -27 c-1
-23 -6 -28 -26 -28 -20 0 -25 5 -25 25 0 14 -4 25 -10 25 -5 0 -10 -11 -10
-25 0 -20 -5 -25 -24 -25 -19 0 -26 6 -29 28 l-4 27 -2 -27 c-1 -23 -6 -28
-26 -28 -20 0 -25 5 -25 25 0 14 -4 25 -10 25 -5 0 -10 -11 -10 -25 0 -20 -5
-25 -24 -25 -19 0 -26 6 -29 28 l-4 27 -2 -27z m299 -213 l0 -165 -165 0 -165
0 0 165 0 165 165 0 165 0 0 -165z"/>
<path d="M2139 2563 c4 -52 7 -49 13 10 2 22 0 37 -7 37 -6 0 -9 -18 -6 -47z"/>
<path d="M2232 2590 c-16 -26 -15 -30 3 -30 21 0 19 -26 -2 -40 -17 -11 -17
-11 0 -6 10 3 21 6 23 6 12 0 2 41 -11 47 -14 5 -14 8 1 24 9 11 13 19 8 19
-5 0 -15 -9 -22 -20z"/>
<path d="M7171 2778 c-1 -19 -7 -27 -23 -30 -15 -2 -24 -11 -26 -25 -2 -15
-12 -23 -30 -26 l-27 -4 28 -2 c22 -1 27 -6 27 -26 0 -20 -5 -25 -25 -25 -14
0 -25 -4 -25 -10 0 -5 11 -10 25 -10 20 0 25 -5 25 -24 0 -19 -6 -26 -27 -29
l-28 -4 28 -2 c22 -1 27 -6 27 -26 0 -20 -5 -25 -25 -25 -14 0 -25 -4 -25 -10
0 -5 11 -10 25 -10 20 0 25 -5 25 -24 0 -19 -6 -26 -27 -29 l-28 -4 27 -2 c19
-1 27 -7 30 -23 2 -15 11 -24 25 -26 15 -2 23 -12 26 -30 l4 -27 2 28 c1 22 6
27 26 27 20 0 25 -5 25 -25 0 -14 5 -25 10 -25 6 0 10 11 10 25 0 20 5 25 24
25 19 0 26 -6 29 -27 l4 -28 2 28 c1 22 6 27 26 27 20 0 25 -5 25 -25 0 -14 5
-25 10 -25 6 0 10 11 10 25 0 20 5 25 24 25 19 0 26 -6 29 -27 l4 -28 2 27 c1
19 7 27 24 30 14 2 23 11 25 25 2 15 12 23 30 26 l27 4 -27 2 c-23 1 -28 6
-28 26 0 20 5 25 25 25 14 0 25 5 25 10 0 6 -11 10 -25 10 -20 0 -25 5 -25 24
0 19 6 26 28 29 l27 4 -27 2 c-23 1 -28 6 -28 26 0 20 5 25 25 25 14 0 25 5
25 10 0 6 -11 10 -25 10 -20 0 -25 5 -25 24 0 19 6 26 28 29 l27 4 -27 2 c-19
1 -27 7 -30 24 -2 14 -11 23 -25 25 -15 2 -23 12 -26 30 l-4 27 -2 -27 c-1
-23 -6 -28 -26 -28 -20 0 -25 5 -25 25 0 14 -4 25 -10 25 -5 0 -10 -11 -10
-25 0 -20 -5 -25 -24 -25 -19 0 -26 6 -29 28 l-4 27 -2 -27 c-1 -23 -6 -28
-26 -28 -20 0 -25 5 -25 25 0 14 -4 25 -10 25 -5 0 -10 -11 -10 -25 0 -20 -5
-25 -24 -25 -19 0 -26 6 -29 28 l-4 27 -2 -27z m299 -213 l0 -165 -165 0 -165
0 0 165 0 165 165 0 165 0 0 -165z"/>
<path d="M7259 2563 c4 -52 7 -49 13 10 2 22 0 37 -7 37 -6 0 -9 -18 -6 -47z"/>
<path d="M7352 2590 c-16 -26 -15 -30 3 -30 21 0 19 -26 -2 -40 -17 -11 -17
-11 0 -6 10 3 21 6 23 6 12 0 2 41 -11 47 -14 5 -14 8 1 24 9 11 13 19 8 19
-5 0 -15 -9 -22 -20z"/>
<path d="M8432 2755 c0 -16 2 -22 5 -12 2 9 2 23 0 30 -3 6 -5 -1 -5 -18z"/>
<path d="M1122 2665 c0 -16 2 -22 5 -12 2 9 2 23 0 30 -3 6 -5 -1 -5 -18z"/>
<path d="M8432 2635 c0 -16 2 -22 5 -12 2 9 2 23 0 30 -3 6 -5 -1 -5 -18z"/>
<path d="M4300 2571 c0 -5 5 -13 10 -16 6 -3 10 -2 10 4 0 5 -4 13 -10 16 -5
3 -10 2 -10 -4z"/>
<path d="M1122 2545 c0 -16 2 -22 5 -12 2 9 2 23 0 30 -3 6 -5 -1 -5 -18z"/>
<path d="M4561 2554 c0 -11 3 -14 6 -6 3 7 2 16 -1 19 -3 4 -6 -2 -5 -13z"/>
<path d="M4464 2548 c-5 -7 -3 -8 6 -3 8 5 18 1 27 -10 7 -11 13 -14 13 -9 0
12 -21 34 -31 34 -4 0 -11 -5 -15 -12z"/>
<path d="M4792 2520 c0 -19 2 -27 5 -17 2 9 2 25 0 35 -3 9 -5 1 -5 -18z"/>
<path d="M5050 2520 c0 -16 2 -30 4 -30 2 0 6 14 8 30 3 17 1 30 -4 30 -4 0
-8 -13 -8 -30z"/>
<path d="M5224 2536 c-3 -8 -4 -27 -2 -43 3 -23 5 -20 9 15 5 43 2 53 -7 28z"/>
<path d="M4303 2533 c-13 -2 -23 -8 -23 -12 0 -5 11 -6 25 -3 14 2 25 8 25 13
0 5 -1 8 -2 8 -2 -1 -13 -4 -25 -6z"/>
<path d="M4592 2534 c9 -3 19 -13 22 -22 3 -12 4 -12 3 3 -1 12 -10 21 -22 22
-15 1 -15 0 -3 -3z"/>
<path d="M4882 2520 c0 -14 2 -19 5 -12 2 6 2 18 0 25 -3 6 -5 1 -5 -13z"/>
<path d="M8432 2515 c0 -16 2 -22 5 -12 2 9 2 23 0 30 -3 6 -5 -1 -5 -18z"/>
<path d="M4718 2523 c7 -3 16 -2 19 1 4 3 -2 6 -13 5 -11 0 -14 -3 -6 -6z"/>
<path d="M4981 2514 c0 -11 3 -14 6 -6 3 7 2 16 -1 19 -3 4 -6 -2 -5 -13z"/>
<path d="M5094 2508 c2 -7 11 -13 21 -13 10 0 19 6 21 13 1 7 0 8 -3 2 -2 -5
-11 -10 -18 -10 -7 0 -16 5 -18 10 -3 6 -4 5 -3 -2z"/>
<path d="M4360 2498 c0 -4 6 -8 14 -8 8 0 17 4 20 8 2 4 -4 8 -15 8 -10 0 -19
-4 -19 -8z"/>
<path d="M4568 2498 c5 -5 16 -8 23 -6 8 3 3 7 -10 11 -17 4 -21 3 -13 -5z"/>
<path d="M4660 2500 c-9 -6 -10 -10 -3 -10 6 0 15 5 18 10 8 12 4 12 -15 0z"/>
<path d="M4715 2500 c-17 -8 -17 -9 7 -7 15 1 24 5 22 9 -3 4 -6 8 -7 7 -1 0
-11 -4 -22 -9z"/>
<path d="M5160 2498 c0 -4 6 -8 14 -8 8 0 17 4 20 8 2 4 -4 8 -15 8 -10 0 -19
-4 -19 -8z"/>
<path d="M5250 2500 c-9 -6 -10 -10 -3 -10 6 0 15 5 18 10 8 12 4 12 -15 0z"/>
<path d="M1122 2425 c0 -16 2 -22 5 -12 2 9 2 23 0 30 -3 6 -5 -1 -5 -18z"/>
<path d="M8432 2395 c0 -16 2 -22 5 -12 2 9 2 23 0 30 -3 6 -5 -1 -5 -18z"/>
<path d="M1122 2305 c0 -16 2 -22 5 -12 2 9 2 23 0 30 -3 6 -5 -1 -5 -18z"/>
<path d="M8432 2275 c0 -16 2 -22 5 -12 2 9 2 23 0 30 -3 6 -5 -1 -5 -18z"/>
<path d="M2290 2215 c-8 -9 -8 -15 -2 -15 6 0 13 -15 15 -32 3 -25 4 -22 5 15
2 51 1 54 -18 32z"/>
<path d="M7410 2215 c-8 -9 -8 -15 -2 -15 6 0 13 -15 15 -32 3 -25 4 -22 5 15
2 51 1 54 -18 32z"/>
<path d="M1122 2185 c0 -16 2 -22 5 -12 2 9 2 23 0 30 -3 6 -5 -1 -5 -18z"/>
<path d="M2045 2200 c-3 -6 4 -10 17 -11 l23 0 -22 -9 c-34 -14 -29 -40 7 -40
26 0 30 3 30 29 0 35 -39 57 -55 31z m35 -34 c0 -3 -4 -8 -10 -11 -5 -3 -10
-1 -10 4 0 6 5 11 10 11 6 0 10 -2 10 -4z"/>
<path d="M2115 2202 c-9 -9 -5 -81 5 -87 6 -3 10 1 10 9 0 9 9 16 20 16 43 0
35 64 -8 66 -12 1 -24 -1 -27 -4z m43 -29 c-4 -22 -22 -20 -26 1 -2 10 3 16
13 16 10 0 15 -7 13 -17z"/>
<path d="M2195 2202 c-9 -9 -5 -81 5 -87 6 -3 10 1 10 9 0 9 9 16 20 16 43 0
35 64 -8 66 -12 1 -24 -1 -27 -4z m43 -29 c-4 -22 -22 -20 -26 1 -2 10 3 16
13 16 10 0 15 -7 13 -17z"/>
<path d="M7165 2200 c-3 -6 4 -10 17 -11 l23 0 -22 -9 c-34 -14 -29 -40 7 -40
26 0 30 3 30 29 0 35 -39 57 -55 31z m35 -34 c0 -3 -4 -8 -10 -11 -5 -3 -10
-1 -10 4 0 6 5 11 10 11 6 0 10 -2 10 -4z"/>
<path d="M7235 2202 c-9 -9 -5 -81 5 -87 6 -3 10 1 10 9 0 9 9 16 20 16 43 0
35 64 -8 66 -12 1 -24 -1 -27 -4z m43 -29 c-4 -22 -22 -20 -26 1 -2 10 3 16
13 16 10 0 15 -7 13 -17z"/>
<path d="M7315 2202 c-9 -9 -5 -81 5 -87 6 -3 10 1 10 9 0 9 9 16 20 16 43 0
35 64 -8 66 -12 1 -24 -1 -27 -4z m43 -29 c-4 -22 -22 -20 -26 1 -2 10 3 16
13 16 10 0 15 -7 13 -17z"/>
<path d="M8432 2155 c0 -16 2 -22 5 -12 2 9 2 23 0 30 -3 6 -5 -1 -5 -18z"/>
<path d="M1122 2065 c0 -16 2 -22 5 -12 2 9 2 23 0 30 -3 6 -5 -1 -5 -18z"/>
<path d="M8432 2035 c0 -16 2 -22 5 -12 2 9 2 23 0 30 -3 6 -5 -1 -5 -18z"/>
<path d="M1122 1945 c0 -16 2 -22 5 -12 2 9 2 23 0 30 -3 6 -5 -1 -5 -18z"/>
<path d="M8432 1915 c0 -16 2 -22 5 -12 2 9 2 23 0 30 -3 6 -5 -1 -5 -18z"/>
<path d="M1153 1863 c9 -2 23 -2 30 0 6 3 -1 5 -18 5 -16 0 -22 -2 -12 -5z"/>
<path d="M1273 1863 c9 -2 23 -2 30 0 6 3 -1 5 -18 5 -16 0 -22 -2 -12 -5z"/>
<path d="M1393 1863 c9 -2 23 -2 30 0 6 3 -1 5 -18 5 -16 0 -22 -2 -12 -5z"/>
<path d="M1513 1863 c9 -2 23 -2 30 0 6 3 -1 5 -18 5 -16 0 -22 -2 -12 -5z"/>
<path d="M1633 1863 c9 -2 23 -2 30 0 6 3 -1 5 -18 5 -16 0 -22 -2 -12 -5z"/>
<path d="M1753 1863 c9 -2 23 -2 30 0 6 3 -1 5 -18 5 -16 0 -22 -2 -12 -5z"/>
<path d="M1873 1863 c9 -2 23 -2 30 0 6 3 -1 5 -18 5 -16 0 -22 -2 -12 -5z"/>
<path d="M1993 1863 c9 -2 23 -2 30 0 6 3 -1 5 -18 5 -16 0 -22 -2 -12 -5z"/>
<path d="M2113 1863 c9 -2 23 -2 30 0 6 3 -1 5 -18 5 -16 0 -22 -2 -12 -5z"/>
<path d="M2233 1863 c9 -2 23 -2 30 0 6 3 -1 5 -18 5 -16 0 -22 -2 -12 -5z"/>
<path d="M2353 1863 c9 -2 23 -2 30 0 6 3 -1 5 -18 5 -16 0 -22 -2 -12 -5z"/>
<path d="M2473 1863 c9 -2 23 -2 30 0 6 3 -1 5 -18 5 -16 0 -22 -2 -12 -5z"/>
<path d="M2593 1863 c9 -2 23 -2 30 0 6 3 -1 5 -18 5 -16 0 -22 -2 -12 -5z"/>
<path d="M2713 1863 c9 -2 23 -2 30 0 6 3 -1 5 -18 5 -16 0 -22 -2 -12 -5z"/>
<path d="M2833 1863 c9 -2 23 -2 30 0 6 3 -1 5 -18 5 -16 0 -22 -2 -12 -5z"/>
<path d="M2953 1863 c9 -2 23 -2 30 0 6 3 -1 5 -18 5 -16 0 -22 -2 -12 -5z"/>
<path d="M3073 1863 c9 -2 23 -2 30 0 6 3 -1 5 -18 5 -16 0 -22 -2 -12 -5z"/>
<path d="M3193 1863 c9 -2 23 -2 30 0 6 3 -1 5 -18 5 -16 0 -22 -2 -12 -5z"/>
<path d="M3313 1863 c9 -2 23 -2 30 0 6 3 -1 5 -18 5 -16 0 -22 -2 -12 -5z"/>
<path d="M3433 1863 c9 -2 23 -2 30 0 6 3 -1 5 -18 5 -16 0 -22 -2 -12 -5z"/>
<path d="M3553 1863 c9 -2 23 -2 30 0 6 3 -1 5 -18 5 -16 0 -22 -2 -12 -5z"/>
<path d="M3673 1863 c9 -2 23 -2 30 0 6 3 -1 5 -18 5 -16 0 -22 -2 -12 -5z"/>
<path d="M3793 1863 c9 -2 23 -2 30 0 6 3 -1 5 -18 5 -16 0 -22 -2 -12 -5z"/>
<path d="M3913 1863 c9 -2 23 -2 30 0 6 3 -1 5 -18 5 -16 0 -22 -2 -12 -5z"/>
<path d="M4033 1863 c9 -2 23 -2 30 0 6 3 -1 5 -18 5 -16 0 -22 -2 -12 -5z"/>
<path d="M4153 1863 c9 -2 23 -2 30 0 6 3 -1 5 -18 5 -16 0 -22 -2 -12 -5z"/>
<path d="M4273 1863 c9 -2 23 -2 30 0 6 3 -1 5 -18 5 -16 0 -22 -2 -12 -5z"/>
<path d="M4393 1863 c9 -2 23 -2 30 0 6 3 -1 5 -18 5 -16 0 -22 -2 -12 -5z"/>
<path d="M4513 1863 c9 -2 23 -2 30 0 6 3 -1 5 -18 5 -16 0 -22 -2 -12 -5z"/>
<path d="M4633 1863 c9 -2 23 -2 30 0 6 3 -1 5 -18 5 -16 0 -22 -2 -12 -5z"/>
<path d="M4753 1863 c9 -2 23 -2 30 0 6 3 -1 5 -18 5 -16 0 -22 -2 -12 -5z"/>
<path d="M4873 1863 c9 -2 23 -2 30 0 6 3 -1 5 -18 5 -16 0 -22 -2 -12 -5z"/>
<path d="M4993 1863 c9 -2 23 -2 30 0 6 3 -1 5 -18 5 -16 0 -22 -2 -12 -5z"/>
<path d="M5113 1863 c9 -2 23 -2 30 0 6 3 -1 5 -18 5 -16 0 -22 -2 -12 -5z"/>
<path d="M5233 1863 c9 -2 23 -2 30 0 6 3 -1 5 -18 5 -16 0 -22 -2 -12 -5z"/>
<path d="M5353 1863 c9 -2 23 -2 30 0 6 3 -1 5 -18 5 -16 0 -22 -2 -12 -5z"/>
<path d="M5473 1863 c9 -2 23 -2 30 0 6 3 -1 5 -18 5 -16 0 -22 -2 -12 -5z"/>
<path d="M5593 1863 c9 -2 23 -2 30 0 6 3 -1 5 -18 5 -16 0 -22 -2 -12 -5z"/>
<path d="M5713 1863 c9 -2 23 -2 30 0 6 3 -1 5 -18 5 -16 0 -22 -2 -12 -5z"/>
<path d="M5833 1863 c9 -2 23 -2 30 0 6 3 -1 5 -18 5 -16 0 -22 -2 -12 -5z"/>
<path d="M5953 1863 c9 -2 23 -2 30 0 6 3 -1 5 -18 5 -16 0 -22 -2 -12 -5z"/>
<path d="M6073 1863 c9 -2 23 -2 30 0 6 3 -1 5 -18 5 -16 0 -22 -2 -12 -5z"/>
<path d="M6193 1863 c9 -2 23 -2 30 0 6 3 -1 5 -18 5 -16 0 -22 -2 -12 -5z"/>
<path d="M6313 1863 c9 -2 23 -2 30 0 6 3 -1 5 -18 5 -16 0 -22 -2 -12 -5z"/>
<path d="M6433 1863 c9 -2 23 -2 30 0 6 3 -1 5 -18 5 -16 0 -22 -2 -12 -5z"/>
<path d="M6553 1863 c9 -2 23 -2 30 0 6 3 -1 5 -18 5 -16 0 -22 -2 -12 -5z"/>
<path d="M6673 1863 c9 -2 23 -2 30 0 6 3 -1 5 -18 5 -16 0 -22 -2 -12 -5z"/>
<path d="M6793 1863 c9 -2 23 -2 30 0 6 3 -1 5 -18 5 -16 0 -22 -2 -12 -5z"/>
<path d="M6913 1863 c9 -2 23 -2 30 0 6 3 -1 5 -18 5 -16 0 -22 -2 -12 -5z"/>
<path d="M7033 1863 c9 -2 23 -2 30 0 6 3 -1 5 -18 5 -16 0 -22 -2 -12 -5z"/>
<path d="M7153 1863 c9 -2 23 -2 30 0 6 3 -1 5 -18 5 -16 0 -22 -2 -12 -5z"/>
<path d="M7273 1863 c9 -2 23 -2 30 0 6 3 -1 5 -18 5 -16 0 -22 -2 -12 -5z"/>
<path d="M7393 1863 c9 -2 23 -2 30 0 6 3 -1 5 -18 5 -16 0 -22 -2 -12 -5z"/>
<path d="M7513 1863 c9 -2 23 -2 30 0 6 3 -1 5 -18 5 -16 0 -22 -2 -12 -5z"/>
<path d="M7633 1863 c9 -2 23 -2 30 0 6 3 -1 5 -18 5 -16 0 -22 -2 -12 -5z"/>
<path d="M7753 1863 c9 -2 23 -2 30 0 6 3 -1 5 -18 5 -16 0 -22 -2 -12 -5z"/>
<path d="M7873 1863 c9 -2 23 -2 30 0 6 3 -1 5 -18 5 -16 0 -22 -2 -12 -5z"/>
<path d="M7993 1863 c9 -2 23 -2 30 0 6 3 -1 5 -18 5 -16 0 -22 -2 -12 -5z"/>
<path d="M8113 1863 c9 -2 23 -2 30 0 6 3 -1 5 -18 5 -16 0 -22 -2 -12 -5z"/>
<path d="M8233 1863 c9 -2 23 -2 30 0 6 3 -1 5 -18 5 -16 0 -22 -2 -12 -5z"/>
<path d="M8353 1863 c9 -2 23 -2 30 0 6 3 -1 5 -18 5 -16 0 -22 -2 -12 -5z"/>
<path d="M1830 1700 l0 -50 43 2 c36 1 38 2 10 5 -43 6 -47 40 -5 46 l27 4
-27 2 c-40 2 -36 29 5 34 28 3 26 4 -10 5 l-43 2 0 -50z"/>
<path d="M1932 1738 c-15 -15 -16 -60 0 -76 19 -19 56 -14 68 8 6 11 7 20 1
20 -5 0 -11 -7 -15 -15 -9 -23 -35 -18 -48 10 -10 21 -9 29 5 43 15 14 20 15
38 4 18 -11 20 -11 17 0 -6 17 -50 22 -66 6z"/>
<path d="M2030 1735 c-14 -17 0 -21 17 -4 8 8 13 7 18 -2 5 -8 -2 -20 -18 -34
-38 -30 -34 -45 11 -44 30 2 32 3 10 6 -35 5 -35 8 -1 37 24 20 25 26 14 40
-17 20 -35 20 -51 1z"/>
<path d="M2140 1700 c0 -27 5 -50 10 -50 6 0 10 23 10 50 0 28 -4 50 -10 50
-5 0 -10 -22 -10 -50z"/>
<path d="M2328 1738 c-6 -17 2 -88 11 -88 7 0 7 88 -1 95 -3 3 -8 0 -10 -7z"/>
<path d="M6980 1690 l0 -50 43 2 c36 1 38 2 10 5 -43 6 -47 40 -5 46 l27 4
-27 2 c-40 2 -36 29 5 34 28 3 26 4 -10 5 l-43 2 0 -50z"/>
<path d="M7082 1728 c-15 -15 -16 -60 0 -76 19 -19 56 -14 68 8 6 11 7 20 1
20 -5 0 -11 -7 -15 -15 -9 -23 -35 -18 -48 10 -10 21 -9 29 5 43 15 14 20 15
38 4 18 -11 20 -11 17 0 -6 17 -50 22 -66 6z"/>
<path d="M7180 1725 c-14 -17 0 -21 17 -4 8 8 13 7 18 -2 5 -8 -2 -20 -18 -34
-38 -30 -34 -45 11 -44 30 2 32 3 10 6 -35 5 -35 8 -1 37 24 20 25 26 14 40
-17 20 -35 20 -51 1z"/>
<path d="M7290 1690 c0 -27 5 -50 10 -50 6 0 10 23 10 50 0 28 -4 50 -10 50
-5 0 -10 -22 -10 -50z"/>
<path d="M7478 1728 c-6 -17 2 -88 11 -88 7 0 7 88 -1 95 -3 3 -8 0 -10 -7z"/>
<path d="M2181 1686 c1 -38 2 -39 8 -11 3 17 13 30 21 30 8 0 18 -13 22 -30 6
-26 6 -25 5 10 -2 36 -5 40 -29 41 -26 1 -28 -1 -27 -40z"/>
<path d="M2263 1719 c-15 -15 1 -39 23 -39 8 0 14 -5 14 -11 0 -7 -10 -9 -26
-5 -17 5 -23 3 -19 -4 10 -16 45 -12 52 6 5 15 -6 27 -32 37 -5 3 -7 8 -3 12
4 4 15 2 24 -6 15 -12 17 -12 12 1 -6 19 -30 24 -45 9z"/>
<path d="M2377 1723 c-13 -13 -7 -25 7 -14 8 7 17 8 20 3 3 -5 -6 -14 -20 -21
-33 -15 -26 -35 15 -39 30 -3 31 -2 26 25 -4 15 -8 34 -11 41 -4 13 -26 16
-37 5z m25 -55 c-6 -6 -15 -8 -19 -4 -4 4 -1 11 7 16 19 12 27 3 12 -12z"/>
<path d="M2440 1691 c0 -49 17 -55 22 -8 4 41 21 38 30 -5 6 -31 6 -31 5 7 -2
36 -5 40 -29 43 -27 3 -28 1 -28 -37z"/>
<path d="M2524 1716 c-12 -31 0 -61 25 -61 13 0 27 7 29 15 4 13 3 13 -11 2
-19 -16 -37 -8 -37 17 0 25 11 33 27 19 15 -12 28 -5 18 11 -9 16 -45 13 -51
-3z"/>
<path d="M2602 1721 c-8 -4 -12 -21 -10 -37 2 -23 8 -29 28 -29 22 0 25 4 25
35 0 36 -17 48 -43 31z m33 -11 c3 -5 -1 -10 -10 -10 -9 0 -13 5 -10 10 3 6 8
10 10 10 2 0 7 -4 10 -10z m-3 -42 c-9 -9 -15 -9 -24 0 -9 9 -7 12 12 12 19 0
21 -3 12 -12z"/>
<path d="M7331 1676 c1 -38 2 -39 8 -11 3 17 13 30 21 30 8 0 18 -13 22 -30 6
-26 6 -25 5 10 -2 36 -5 40 -29 41 -26 1 -28 -1 -27 -40z"/>
<path d="M7413 1709 c-15 -15 1 -39 23 -39 8 0 14 -5 14 -11 0 -7 -10 -9 -26
-5 -17 5 -23 3 -19 -4 10 -16 45 -12 52 6 5 15 -6 27 -32 37 -5 3 -7 8 -3 12
4 4 15 2 24 -6 15 -12 17 -12 12 1 -6 19 -30 24 -45 9z"/>
<path d="M7527 1713 c-13 -13 -7 -25 7 -14 8 7 17 8 20 3 3 -5 -6 -14 -20 -21
-33 -15 -26 -35 15 -39 30 -3 31 -2 26 25 -4 15 -8 34 -11 41 -4 13 -26 16
-37 5z m25 -55 c-6 -6 -15 -8 -19 -4 -4 4 -1 11 7 16 19 12 27 3 12 -12z"/>
<path d="M7590 1681 c0 -49 17 -55 22 -8 4 41 21 38 30 -5 6 -31 6 -31 5 7 -2
36 -5 40 -29 43 -27 3 -28 1 -28 -37z"/>
<path d="M7674 1706 c-12 -31 0 -61 25 -61 13 0 27 7 29 15 4 13 3 13 -11 2
-19 -16 -37 -8 -37 17 0 25 11 33 27 19 15 -12 28 -5 18 11 -9 16 -45 13 -51
-3z"/>
<path d="M7752 1711 c-8 -4 -12 -21 -10 -37 2 -23 8 -29 28 -29 22 0 25 4 25
35 0 36 -17 48 -43 31z m33 -11 c3 -5 -1 -10 -10 -10 -9 0 -13 5 -10 10 3 6 8
10 10 10 2 0 7 -4 10 -10z m-3 -42 c-9 -9 -15 -9 -24 0 -9 9 -7 12 12 12 19 0
21 -3 12 -12z"/>
<path d="M6260 1330 l0 -120 120 0 120 0 0 120 0 120 -120 0 -120 0 0 -120z
m150 80 c11 -11 20 -27 20 -35 0 -8 5 -15 10 -15 6 0 10 -28 10 -65 l0 -65
-70 0 -70 0 0 65 c0 37 4 65 10 65 6 0 10 7 10 15 0 17 35 55 50 55 6 0 19 -9
30 -20z"/>
<path d="M6357 1404 c-4 -4 -7 -16 -7 -26 0 -13 8 -18 31 -18 26 0 30 3 27 23
-3 22 -36 36 -51 21z"/>
<path d="M6320 1300 l0 -50 60 0 60 0 0 50 0 50 -60 0 -60 0 0 -50z m73 -4
c-4 -51 -19 -50 -29 3 -6 29 -4 33 12 29 14 -3 18 -11 17 -32z"/>
<path d="M6370 1310 c0 -5 5 -10 10 -10 6 0 10 5 10 10 0 6 -4 10 -10 10 -5 0
-10 -4 -10 -10z"/>
<path d="M1060 1320 l0 -120 120 0 120 0 0 120 0 120 -120 0 -120 0 0 -120z
m150 80 c11 -11 20 -27 20 -35 0 -8 5 -15 10 -15 6 0 10 -28 10 -65 l0 -65
-70 0 -70 0 0 65 c0 37 4 65 10 65 6 0 10 7 10 15 0 17 35 55 50 55 6 0 19 -9
30 -20z"/>
<path d="M1157 1394 c-4 -4 -7 -16 -7 -26 0 -13 8 -18 31 -18 26 0 30 3 27 23
-3 22 -36 36 -51 21z"/>
<path d="M1120 1290 l0 -50 60 0 60 0 0 50 0 50 -60 0 -60 0 0 -50z m73 -4
c-4 -51 -19 -50 -29 3 -6 29 -4 33 12 29 14 -3 18 -11 17 -32z"/>
<path d="M1170 1300 c0 -5 5 -10 10 -10 6 0 10 5 10 10 0 6 -4 10 -10 10 -5 0
-10 -4 -10 -10z"/>
<path d="M6581 1323 c1 -27 4 -38 6 -26 3 13 13 23 26 25 12 2 22 11 23 21 1
12 1 13 -3 2 -6 -19 -43 -20 -43 -1 0 8 8 17 18 19 13 4 11 5 -5 6 -21 1 -23
-3 -22 -46z"/>
<path d="M7113 1325 c0 -27 2 -38 4 -22 2 15 2 37 0 50 -2 12 -4 0 -4 -28z"/>
<path d="M1381 1313 c1 -27 4 -38 6 -26 3 13 13 23 26 25 12 2 22 11 23 21 1
12 1 13 -3 2 -6 -19 -43 -20 -43 -1 0 8 8 17 18 19 13 4 11 5 -5 6 -21 1 -23
-3 -22 -46z"/>
<path d="M1913 1315 c0 -27 2 -38 4 -22 2 15 2 37 0 50 -2 12 -4 0 -4 -28z"/>
<path d="M6850 1339 c0 -5 5 -7 10 -4 6 3 10 8 10 11 0 2 -4 4 -10 4 -5 0 -10
-5 -10 -11z"/>
<path d="M6918 1338 c12 -15 10 -17 -15 -21 -27 -4 -27 -4 5 -6 36 -1 41 10
15 30 -16 13 -17 12 -5 -3z"/>
<path d="M7142 1336 c7 -8 15 -12 17 -11 5 6 -10 25 -20 25 -5 0 -4 -6 3 -14z"/>
<path d="M7278 1338 c12 -15 10 -17 -15 -21 -27 -4 -27 -4 5 -6 36 -1 41 10
15 30 -16 13 -17 12 -5 -3z"/>
<path d="M1650 1329 c0 -5 5 -7 10 -4 6 3 10 8 10 11 0 2 -4 4 -10 4 -5 0 -10
-5 -10 -11z"/>
<path d="M1718 1328 c12 -15 10 -17 -15 -21 -27 -4 -27 -4 5 -6 36 -1 41 10
15 30 -16 13 -17 12 -5 -3z"/>
<path d="M1942 1326 c7 -8 15 -12 17 -11 5 6 -10 25 -20 25 -5 0 -4 -6 3 -14z"/>
<path d="M2078 1328 c12 -15 10 -17 -15 -21 -27 -4 -27 -4 5 -6 36 -1 41 10
15 30 -16 13 -17 12 -5 -3z"/>
<path d="M6660 1310 c0 -16 2 -30 4 -30 2 0 6 14 8 30 3 17 1 30 -4 30 -4 0
-8 -13 -8 -30z"/>
<path d="M6702 1310 c0 -19 2 -27 5 -17 2 9 2 25 0 35 -3 9 -5 1 -5 -18z"/>
<path d="M7182 1310 c0 -19 2 -27 5 -17 2 9 2 25 0 35 -3 9 -5 1 -5 -18z"/>
<path d="M1460 1300 c0 -16 2 -30 4 -30 2 0 6 14 8 30 3 17 1 30 -4 30 -4 0
-8 -13 -8 -30z"/>
<path d="M1502 1300 c0 -19 2 -27 5 -17 2 9 2 25 0 35 -3 9 -5 1 -5 -18z"/>
<path d="M1982 1300 c0 -19 2 -27 5 -17 2 9 2 25 0 35 -3 9 -5 1 -5 -18z"/>
<path d="M7222 1305 c0 -16 2 -22 5 -12 2 9 2 23 0 30 -3 6 -5 -1 -5 -18z"/>
<path d="M2022 1295 c0 -16 2 -22 5 -12 2 9 2 23 0 30 -3 6 -5 -1 -5 -18z"/>
<path d="M6808 1313 c7 -3 16 -2 19 1 4 3 -2 6 -13 5 -11 0 -14 -3 -6 -6z"/>
<path d="M7010 1313 c15 -7 12 -21 -5 -26 -11 -4 -10 -4 2 -3 21 2 25 28 5 32
-7 1 -8 0 -2 -3z"/>
<path d="M1608 1303 c7 -3 16 -2 19 1 4 3 -2 6 -13 5 -11 0 -14 -3 -6 -6z"/>
<path d="M1810 1303 c15 -7 12 -21 -5 -26 -11 -4 -10 -4 2 -3 21 2 25 28 5 32
-7 1 -8 0 -2 -3z"/>
<path d="M6747 1303 c-4 -3 -7 -11 -7 -17 0 -6 5 -5 12 2 6 6 9 14 7 17 -3 3
-9 2 -12 -2z"/>
<path d="M7142 1294 c-7 -8 -8 -14 -3 -14 10 0 25 19 20 25 -2 1 -10 -3 -17
-11z"/>
<path d="M1547 1293 c-4 -3 -7 -11 -7 -17 0 -6 5 -5 12 2 6 6 9 14 7 17 -3 3
-9 2 -12 -2z"/>
<path d="M1942 1284 c-7 -8 -8 -14 -3 -14 10 0 25 19 20 25 -2 1 -10 -3 -17
-11z"/>
<path d="M6805 1290 c-17 -8 -17 -9 7 -7 15 1 24 5 22 9 -3 4 -6 8 -7 7 -1 0
-11 -4 -22 -9z"/>
<path d="M6897 1289 c7 -7 15 -10 18 -7 3 3 -2 9 -12 12 -14 6 -15 5 -6 -5z"/>
<path d="M7050 1288 c0 -4 6 -8 14 -8 8 0 17 4 20 8 2 4 -4 8 -15 8 -10 0 -19
-4 -19 -8z"/>
<path d="M7257 1289 c7 -7 15 -10 18 -7 3 3 -2 9 -12 12 -14 6 -15 5 -6 -5z"/>
<path d="M1605 1280 c-17 -8 -17 -9 7 -7 15 1 24 5 22 9 -3 4 -6 8 -7 7 -1 0
-11 -4 -22 -9z"/>
<path d="M1697 1279 c7 -7 15 -10 18 -7 3 3 -2 9 -12 12 -14 6 -15 5 -6 -5z"/>
<path d="M1850 1278 c0 -4 6 -8 14 -8 8 0 17 4 20 8 2 4 -4 8 -15 8 -10 0 -19
-4 -19 -8z"/>
<path d="M2057 1279 c7 -7 15 -10 18 -7 3 3 -2 9 -12 12 -14 6 -15 5 -6 -5z"/>
<path d="M6238 313 c7 -3 16 -2 19 1 4 3 -2 6 -13 5 -11 0 -14 -3 -6 -6z"/>
<path d="M6298 313 c7 -3 16 -2 19 1 4 3 -2 6 -13 5 -11 0 -14 -3 -6 -6z"/>
<path d="M6358 313 c7 -3 16 -2 19 1 4 3 -2 6 -13 5 -11 0 -14 -3 -6 -6z"/>
<path d="M6418 313 c7 -3 16 -2 19 1 4 3 -2 6 -13 5 -11 0 -14 -3 -6 -6z"/>
<path d="M6478 313 c7 -3 16 -2 19 1 4 3 -2 6 -13 5 -11 0 -14 -3 -6 -6z"/>
<path d="M6538 313 c7 -3 16 -2 19 1 4 3 -2 6 -13 5 -11 0 -14 -3 -6 -6z"/>
<path d="M6598 313 c7 -3 16 -2 19 1 4 3 -2 6 -13 5 -11 0 -14 -3 -6 -6z"/>
<path d="M6658 313 c7 -3 16 -2 19 1 4 3 -2 6 -13 5 -11 0 -14 -3 -6 -6z"/>
<path d="M6718 313 c7 -3 16 -2 19 1 4 3 -2 6 -13 5 -11 0 -14 -3 -6 -6z"/>
<path d="M6778 313 c7 -3 16 -2 19 1 4 3 -2 6 -13 5 -11 0 -14 -3 -6 -6z"/>
<path d="M6838 313 c7 -3 16 -2 19 1 4 3 -2 6 -13 5 -11 0 -14 -3 -6 -6z"/>
<path d="M6898 313 c7 -3 16 -2 19 1 4 3 -2 6 -13 5 -11 0 -14 -3 -6 -6z"/>
<path d="M6958 313 c7 -3 16 -2 19 1 4 3 -2 6 -13 5 -11 0 -14 -3 -6 -6z"/>
<path d="M7018 313 c7 -3 16 -2 19 1 4 3 -2 6 -13 5 -11 0 -14 -3 -6 -6z"/>
<path d="M7078 313 c7 -3 16 -2 19 1 4 3 -2 6 -13 5 -11 0 -14 -3 -6 -6z"/>
<path d="M7138 313 c7 -3 16 -2 19 1 4 3 -2 6 -13 5 -11 0 -14 -3 -6 -6z"/>
<path d="M7198 313 c7 -3 16 -2 19 1 4 3 -2 6 -13 5 -11 0 -14 -3 -6 -6z"/>
<path d="M7258 313 c7 -3 16 -2 19 1 4 3 -2 6 -13 5 -11 0 -14 -3 -6 -6z"/>
<path d="M7318 313 c7 -3 16 -2 19 1 4 3 -2 6 -13 5 -11 0 -14 -3 -6 -6z"/>
<path d="M7378 313 c7 -3 16 -2 19 1 4 3 -2 6 -13 5 -11 0 -14 -3 -6 -6z"/>
<path d="M7438 313 c7 -3 16 -2 19 1 4 3 -2 6 -13 5 -11 0 -14 -3 -6 -6z"/>
<path d="M7498 313 c7 -3 16 -2 19 1 4 3 -2 6 -13 5 -11 0 -14 -3 -6 -6z"/>
<path d="M7558 313 c7 -3 16 -2 19 1 4 3 -2 6 -13 5 -11 0 -14 -3 -6 -6z"/>
<path d="M7618 313 c7 -3 16 -2 19 1 4 3 -2 6 -13 5 -11 0 -14 -3 -6 -6z"/>
<path d="M7678 313 c7 -3 16 -2 19 1 4 3 -2 6 -13 5 -11 0 -14 -3 -6 -6z"/>
<path d="M7738 313 c7 -3 16 -2 19 1 4 3 -2 6 -13 5 -11 0 -14 -3 -6 -6z"/>
<path d="M7798 313 c7 -3 16 -2 19 1 4 3 -2 6 -13 5 -11 0 -14 -3 -6 -6z"/>
<path d="M7858 313 c7 -3 16 -2 19 1 4 3 -2 6 -13 5 -11 0 -14 -3 -6 -6z"/>
<path d="M7918 313 c7 -3 16 -2 19 1 4 3 -2 6 -13 5 -11 0 -14 -3 -6 -6z"/>
<path d="M7978 313 c7 -3 16 -2 19 1 4 3 -2 6 -13 5 -11 0 -14 -3 -6 -6z"/>
<path d="M8038 313 c7 -3 16 -2 19 1 4 3 -2 6 -13 5 -11 0 -14 -3 -6 -6z"/>
<path d="M8098 313 c7 -3 16 -2 19 1 4 3 -2 6 -13 5 -11 0 -14 -3 -6 -6z"/>
<path d="M8158 313 c7 -3 16 -2 19 1 4 3 -2 6 -13 5 -11 0 -14 -3 -6 -6z"/>
<path d="M8218 313 c7 -3 16 -2 19 1 4 3 -2 6 -13 5 -11 0 -14 -3 -6 -6z"/>
<path d="M8278 313 c7 -3 16 -2 19 1 4 3 -2 6 -13 5 -11 0 -14 -3 -6 -6z"/>
<path d="M8338 313 c7 -3 16 -2 19 1 4 3 -2 6 -13 5 -11 0 -14 -3 -6 -6z"/>
<path d="M8398 313 c7 -3 16 -2 19 1 4 3 -2 6 -13 5 -11 0 -14 -3 -6 -6z"/>
<path d="M8458 313 c7 -3 16 -2 19 1 4 3 -2 6 -13 5 -11 0 -14 -3 -6 -6z"/>
<path d="M8518 313 c7 -3 16 -2 19 1 4 3 -2 6 -13 5 -11 0 -14 -3 -6 -6z"/>
<path d="M8578 313 c7 -3 16 -2 19 1 4 3 -2 6 -13 5 -11 0 -14 -3 -6 -6z"/>
<path d="M4635 6090 c-40 -16 -46 -33 -43 -136 3 -94 4 -99 26 -102 21 -3 22
-1 22 87 0 99 7 111 67 111 47 0 52 -10 55 -105 3 -89 3 -90 28 -90 25 0 25 0
28 108 l3 108 -35 14 c-38 16 -118 19 -151 5z m147 -21 c15 -8 18 -24 18 -104
0 -123 -18 -125 -22 -3 l-3 92 -33 10 c-20 6 -47 6 -70 0 l-37 -9 -3 -92 c-4
-123 -22 -121 -22 2 0 52 1 95 3 95 1 0 20 7 42 15 40 15 93 12 127 -6z"/>
<path d="M60 6080 c0 -5 5 -10 10 -10 6 0 10 5 10 10 0 6 -4 10 -10 10 -5 0
-10 -4 -10 -10z"/>
</g>
</svg>
